<?xml version="1.0" standalone="no"?>
<!DOCTYPE svg PUBLIC "-//W3C//DTD SVG 1.1//EN" "http://www.w3.org/Graphics/SVG/1.1/DTD/svg11.dtd" >
<svg xmlns="http://www.w3.org/2000/svg">
<metadata></metadata>
<defs>
<font id="head_storiesregular" horiz-adv-x="614" >
<font-face units-per-em="2048" ascent="1536" descent="-512" />
<missing-glyph horiz-adv-x="500" />
<glyph horiz-adv-x="0" />
<glyph unicode="&#xd;" />
<glyph unicode=" " />
<glyph unicode="!" horiz-adv-x="411" d="M139 113q0 -29 20.5 -48.5t45.5 -19.5q24 0 44.5 19.5t20.5 48.5t-20.5 48t-44.5 19q-25 0 -45.5 -19.5t-20.5 -47.5zM162 340h86v1196h-86v-1196z" />
<glyph unicode="&#x22;" horiz-adv-x="634" d="M129 967h82l4 254l4 254h-90v-508zM401 967h82l4 254l5 254h-91v-508z" />
<glyph unicode="#" horiz-adv-x="1169" d="M55 430h219l-49 -430h86l49 430h291l-49 -430h86l49 430h252l4 43l4 41h-247l32 291h254l4 41q0 12 4 41h-251q10 72 26 215t27 215h-86q-10 -72 -27 -215q-16 -143 -26 -215h-291q10 72 26 215t27 215h-86q-10 -72 -27 -215q-16 -143 -26 -215h-219q-2 -14 -2 -41 l-7 -41h217l-32 -291h-221q-4 -49 -11 -84zM373 514l33 291h290l-32 -291h-291z" />
<glyph unicode="$" horiz-adv-x="1161" d="M135 182q53 -66 139 -116q109 -68 240 -78v-127h86v125q164 12 277 118q115 109 114 277q0 170 -131 276q-49 41 -107.5 67t-152.5 60v572q135 -16 236 -109l24 33q12 20 25 33q-135 115 -285 125v127h-86v-125q-168 -12 -258 -133q-39 -53 -57.5 -119t-14.5 -129 q2 -139 115 -230q68 -53 186 -92l29 -12v-657q-98 8 -188 63q-63 39 -133 109zM268 1073q1 111 62 187q68 84 184 96v-539q-20 4 -37 14q-104 35 -156.5 89.5t-52.5 152.5zM600 72v622q137 -45 209 -102q96 -82 96 -215q0 -129 -90 -213q-90 -80 -215 -92z" />
<glyph unicode="%" horiz-adv-x="1486" d="M207 797q0 -47 19.5 -92.5t52.5 -75.5q31 -33 74.5 -51.5t92.5 -18.5q98 0 168 70q33 31 52.5 76t19.5 92q0 96 -72 168q-72 68 -168 67q-49 0 -93 -18.5t-74 -48.5q-72 -72 -72 -168zM293 795q0 65 44 109t109 44q66 0 110 -44t44 -109q0 -63 -44 -107.5t-110 -44.5 t-109.5 44t-43.5 108zM397 0h95l305 512l305 512h-94l-306 -512zM829 229q0 -47 19.5 -92t52.5 -76q31 -33 75 -51t93 -18q98 -1 168 69q33 31 52.5 76t19.5 92q0 96 -72 168q-72 68 -168 68q-49 0 -93 -18.5t-75 -49.5q-72 -72 -72 -168zM915 229q0 64 44.5 109t109.5 45 q66 0 110 -45t44 -109q0 -66 -44 -109.5t-110 -43.5t-110 44t-44 109z" />
<glyph unicode="&#x26;" horiz-adv-x="1433" d="M217 383q0 -82 31 -154.5t88 -128.5q55 -55 128 -85.5t154 -30.5q96 0 181.5 41t140.5 114l55 -88l56 -90l32 23l33 22q-37 57 -65 109l-68 106q39 76 39 162v82q-1 123 22 172q23 47 84 47h107v84h-84h-40t-53.5 -4t-39.5 -14q-63 -39 -74 -166v-86q-8 -78 -37 -154 l-59 96l-154 252l-215 348q-51 86 -51 168q0 133 125 211q57 33 119 33q29 0 59 -6q59 -12 164 -70l18 35l17 35q-94 61 -197 80q-33 6 -71 6q-90 0 -164 -45q-80 -47 -118 -115.5t-38 -150.5q0 -100 61 -205q47 -80 146 -240q-145 -25 -238 -133q-45 -53 -69.5 -119.5 t-24.5 -140.5zM301 383q0 61 22.5 117.5t63.5 99.5q82 86 211 98q47 -80 145 -239l148 -240q-43 -70 -113.5 -110.5t-159.5 -40.5q-68 0 -125 24.5t-100 67.5q-92 92 -92 223z" />
<glyph unicode="'" horiz-adv-x="313" d="M117 967h82l4 254l4 254h-90v-508z" />
<glyph unicode="(" horiz-adv-x="831" d="M274 598q1 -291 105 -551q96 -242 233 -381l33 25q10 6 31 22q-131 147 -217 365q-98 248 -99 520q0 272 99 520q86 217 217 365l-31 24l-33 23q-137 -139 -233 -381q-104 -260 -105 -551z" />
<glyph unicode=")" horiz-adv-x="819" d="M197 -291l32 -22l31 -25q66 70 126 168t108 213q104 260 104 551t-104 551q-47 115 -107.5 213t-126.5 168q-20 -16 -31 -23l-32 -24q131 -147 217 -365q98 -248 98 -520t-98 -520q-86 -217 -217 -365z" />
<glyph unicode="*" horiz-adv-x="686" d="M68 1075l24 -39q2 -6 23 -41q84 51 184 107v-213h82q2 35 2 106q0 72 2 107l94 -55l92 -56l25 41q6 12 22 37l-94 55q-6 4 -39 21l-57 33l96 55l97 55q-8 14 -18.5 32.5t-22.5 39.5l-58 -33q-33 -16 -39 -20l-96 -56q0 76 2 113v111h-90v-224l-94 56l-94 55 q-27 -39 -41 -72l94 -55l92 -55q-14 -8 -94 -52z" />
<glyph unicode="+" horiz-adv-x="1112" d="M176 432h326v-328h86v328h325v84h-325v326h-86v-326h-326v-84z" />
<glyph unicode="," horiz-adv-x="409" d="M35 -246h78l88 211l88 211h-96l-23 -57l-55 -154z" />
<glyph unicode="-" d="M109 346h376v84h-376v-84z" />
<glyph unicode="." horiz-adv-x="333" d="M109 68q0 -29 20.5 -48.5t46.5 -19.5q25 0 45.5 19.5t20.5 48.5t-20.5 48t-45.5 19q-27 0 -47 -19.5t-20 -47.5z" />
<glyph unicode="/" horiz-adv-x="706" d="M35 -39h86l285 774l284 772h-86l-285 -772z" />
<glyph unicode="0" horiz-adv-x="1261" d="M74 670q0 -144 43 -270t121 -218q74 -92 173 -144t207 -52q109 0 209.5 50t178.5 140q80 94 124 219t44 269q0 125 -34 245.5t-100 216.5q-72 102 -175 162t-234 60q-135 0 -239.5 -57.5t-176.5 -160.5q-68 -96 -104.5 -216.5t-36.5 -243.5zM162 670q0 118 32.5 227 t94.5 190q61 84 147 130.5t193 46.5q104 0 190 -47.5t148 -133.5q59 -82 89.5 -190.5t30.5 -230.5q0 -129 -37.5 -239t-105.5 -192q-66 -78 -149.5 -120.5t-173.5 -42.5t-173 45t-147 125q-66 82 -102.5 192.5t-36.5 239.5z" />
<glyph unicode="1" horiz-adv-x="530" d="M70 1247h194v-1247h86v1331h-280v-84z" />
<glyph unicode="2" horiz-adv-x="1034" d="M98 948q0 -80 31 -154.5t84 -121.5q12 14 27 26l24 25q-80 90 -80 225q0 49 15.5 103.5t46.5 99.5q80 113 241 113q49 0 101.5 -18.5t93.5 -57.5q102 -98 102 -275q0 -92 -54 -197.5t-155 -228.5q-72 -88 -160.5 -181t-234.5 -236l-71 -70h849v84h-641l195 207 q102 109 178 211q180 240 180 436q0 84 -27.5 160t-76.5 131q-51 57 -123 88t-156 31q-92 0 -164.5 -31t-123.5 -86q-49 -55 -75 -128t-26 -155z" />
<glyph unicode="3" horiz-adv-x="1054" d="M162 123q61 -66 143 -102.5t172 -36.5q86 0 166 33.5t139 93.5q59 59 92 137t33 164q0 168 -114 286q-55 55 -129 89t-154 40l362 504h-661v-84h508l-187 -268q-57 -78 -118 -168l-70 -100q63 43 129 43q72 0 134.5 -26t111.5 -75t75.5 -111.5t26.5 -129.5 q0 -68 -26.5 -130.5t-75.5 -111.5t-111.5 -75.5t-134.5 -26.5q-74 0 -138.5 31.5t-109.5 86.5z" />
<glyph unicode="4" horiz-adv-x="1054" d="M76 375h663v-375h86v375h199v84h-199v889l-374 -486zM250 459l246 319l243 318v-637h-489z" />
<glyph unicode="5" horiz-adv-x="1112" d="M225 102q129 -119 295 -118q86 0 166 33.5t139 93.5q59 59 93 137t34 164t-33.5 163.5t-93.5 135.5q-59 57 -139 90t-166 33q-70 0 -141 -31v444h502v84h-588v-674q35 43 94 68t131 25t134.5 -26t111.5 -73t75.5 -109.5t26.5 -129.5q0 -68 -26.5 -130.5t-75.5 -111.5 t-111.5 -75.5t-134.5 -26.5q-133 0 -229 92l-31 -29z" />
<glyph unicode="6" horiz-adv-x="1064" d="M100 399q2 -84 36 -160.5t93 -132.5q59 -57 137 -89.5t162 -32.5q86 0 166 33.5t140 91.5q59 57 91.5 135t32.5 164t-32.5 164.5t-91.5 136.5q-59 57 -139.5 91t-166.5 34q-63 0 -120.5 -27t-96.5 -74q63 109 193.5 238t331.5 260q-41 51 -56 69q-158 -115 -262 -200.5 t-192 -184.5q-225 -256 -226 -516zM186 408q0 69 27 131.5t74 109.5q100 100 241 101q70 0 133.5 -27t110.5 -74q49 -49 75.5 -111.5t26.5 -129.5q0 -141 -102 -240q-49 -47 -112.5 -73.5t-131.5 -26.5q-137 0 -241 100q-100 96 -101 240z" />
<glyph unicode="7" horiz-adv-x="960" d="M29 1247h696l-281 -622l-282 -625h100l105 231q84 190 194 435q111 244 195 434l104 231h-831v-84z" />
<glyph unicode="8" horiz-adv-x="1044" d="M94 412q0 -86 34 -164t93 -137t136 -93t163 -34t166 33.5t139 93.5q59 59 93 137t34 164q0 133 -78 239q-76 100 -198 148q68 37 108.5 100.5t40.5 140.5q0 123 -90 217q-43 43 -100 67t-119 24q-61 0 -116.5 -22.5t-98.5 -65.5t-66.5 -98.5t-23.5 -117.5 q0 -80 42 -146.5t112 -98.5q-121 -45 -196 -149.5t-75 -237.5zM182 412q0 67 25.5 129.5t73.5 109.5q98 98 241 99q68 0 132.5 -27t111.5 -74t73.5 -108.5t26.5 -128.5q0 -68 -26.5 -130.5t-75.5 -111.5t-111.5 -76.5t-134.5 -27.5q-139 0 -237 104q-47 49 -73 111.5 t-26 130.5zM297 1036q-1 90 65 160q68 68 158 68t158 -68q61 -68 61 -160q0 -88 -62.5 -145t-156.5 -57q-90 0 -158 57q-31 27 -48 64.5t-17 80.5z" />
<glyph unicode="9" horiz-adv-x="1075" d="M88 874q0 -86 34 -164.5t93 -136.5q59 -57 138 -89.5t165 -32.5q66 0 123 26.5t96 73.5q-61 -106 -191 -234.5t-333 -265.5l29 -33q16 -25 26 -34q156 113 261.5 197.5t193.5 183.5q225 254 225 509q0 87 -32.5 164.5t-92.5 135.5q-59 57 -139 90.5t-166 33.5t-165 -33.5 t-138 -90.5t-93 -135t-34 -165zM174 874q0 68 27.5 131.5t74.5 110.5q102 98 244 98q70 0 132.5 -25.5t109.5 -72.5t72.5 -109.5t25.5 -132.5q0 -139 -98 -241q-47 -47 -109.5 -74t-132.5 -27q-143 0 -244 101q-102 102 -102 241z" />
<glyph unicode=":" horiz-adv-x="358" d="M106 68q0 -29 20.5 -48.5t47.5 -19.5t46.5 19.5t19.5 48.5t-19.5 48t-46.5 19t-47.5 -19.5t-20.5 -47.5zM106 580q0 -29 20.5 -48.5t47.5 -19.5t46.5 19.5t19.5 48.5t-19.5 48t-46.5 19t-47.5 -19.5t-20.5 -47.5z" />
<glyph unicode=";" horiz-adv-x="411" d="M4 -246h80l88 211l88 211h-98l-23 -57l-55 -154zM160 580q0 -29 20.5 -48.5t46.5 -19.5q27 0 47.5 19.5t20.5 48.5t-20.5 48t-47.5 19t-47 -19.5t-20 -47.5z" />
<glyph unicode="&#x3c;" horiz-adv-x="1392" d="M236 487l448 -258q150 -88 449 -260v113l-351 203l-354 202l354 203l351 203v113l-449 -258q-150 -88 -448 -261z" />
<glyph unicode="=" horiz-adv-x="1449" d="M205 276h1036v84h-1036v-84zM205 674h1036v84h-1036v-84z" />
<glyph unicode="&#x3e;" horiz-adv-x="1331" d="M236 -31q298 172 448 260l449 258q-299 172 -449 261l-448 258v-113l354 -203l350 -203l-350 -202l-354 -203v-113z" />
<glyph unicode="?" horiz-adv-x="925" d="M72 1210l39 -12q25 -8 36 -14q35 110 117 170.5t199 60.5q135 0 225 -90t90 -225q0 -76 -30 -142q-49 -102 -195 -190q-49 -29 -82 -59q-41 -33 -61.5 -74t-20.5 -100v-199h86v160q0 57 17 100q29 66 104 111q45 29 68 47q201 143 200 346q0 80 -29.5 153.5t-84.5 128.5 q-57 55 -131 86t-156 31q-152 0 -258 -92q-92 -78 -133 -197zM365 98q0 -29 20.5 -48t46.5 -19q25 0 45.5 19.5t20.5 47.5q0 29 -20.5 48.5t-45.5 19.5q-27 0 -47 -19.5t-20 -48.5z" />
<glyph unicode="@" horiz-adv-x="2027" d="M168 387q0 -170 64.5 -321.5t181.5 -266.5t268.5 -179t318.5 -64q135 0 262.5 42t229.5 119q-14 20 -27.5 35t-23.5 27q-197 -139 -441 -139q-152 0 -287.5 57t-240.5 162q-104 104 -161.5 239t-57.5 287q0 154 58.5 292t160.5 241q102 102 238.5 159.5t289.5 57.5 q152 0 289 -57.5t240 -159.5q102 -102 159.5 -240.5t57.5 -292.5q-4 -154 -65.5 -228.5t-163.5 -74.5h-115v686h-70l-4 -90q-4 -61 -4 -90q-29 78 -119 135q-96 61 -207 61q-82 0 -155.5 -30.5t-128.5 -85.5t-87 -129t-32 -154q0 -82 30.5 -154.5t88.5 -128.5 q55 -55 129 -85.5t155 -30.5q115 0 213 59q41 25 71 59.5t44 71.5v-45q-2 -16 -2 -49v-82h184q129 0 211 76q100 94 113 309q0 170 -64.5 322.5t-179.5 267.5t-267.5 179.5t-320.5 64.5t-319.5 -64.5t-267.5 -179.5q-117 -115 -181.5 -266.5t-64.5 -321.5zM682 385 q0 66 24.5 124t67.5 101t100.5 67.5t124.5 24.5q66 0 125.5 -24.5t102.5 -67.5t66.5 -101t23.5 -124q0 -129 -90 -223q-43 -43 -102.5 -67.5t-125.5 -24.5q-68 0 -125 24.5t-100 67.5q-92 92 -92 223z" />
<glyph unicode="A" horiz-adv-x="1515" d="M123 0h88l131 307l129 307h576l131 -307l129 -307h86l-318 750l-317 749l-318 -749zM506 696q57 133 133 305q74 172 119 308q2 -6 10 -29l8 -29l236 -555h-506z" />
<glyph unicode="B" horiz-adv-x="1095" d="M152 0h364q86 0 166 24.5t143 69.5q135 102 136 275q0 139 -93 237q-86 88 -215 115q125 35 189.5 129t64.5 225q0 184 -116 275q-111 84 -312 84h-327v-1434zM236 82v598h237q170 0 281 -72q123 -86 123 -233q0 -137 -109 -219q-100 -74 -260 -74h-272zM236 762v590h262 q155 -1 235 -64q90 -72 90 -219q0 -137 -86 -222t-231 -85h-270z" />
<glyph unicode="C" horiz-adv-x="1372" d="M127 715q0 -150 56.5 -283t158.5 -233q100 -102 233.5 -158.5t282.5 -56.5q199 0 373 102l-47 70q-154 -90 -330 -90q-131 0 -246.5 50t-206.5 140q-90 90 -139 208t-49 249q0 133 49 252.5t139 210.5q90 90 208 141t249 51q176 0 328 -90l24 35q8 18 23 35 q-176 102 -375 102q-150 0 -283 -57.5t-233 -157.5q-102 -102 -158.5 -236.5t-56.5 -283.5z" />
<glyph unicode="D" horiz-adv-x="1335" d="M156 0h231q207 0 359.5 63.5t252.5 174.5q90 100 134.5 225t44.5 254q0 160 -56.5 294t-156.5 230q-98 92 -229.5 142.5t-278.5 50.5h-301v-1434zM240 84v1268h217q131 0 246.5 -44t203.5 -126q88 -86 137.5 -204t49.5 -261q0 -125 -43 -237.5t-125 -198.5 q-88 -92 -216 -144.5t-292 -52.5h-178z" />
<glyph unicode="E" horiz-adv-x="1230" d="M174 0h879v82h-795v600h686v82h-686v588h766v82h-850v-1434z" />
<glyph unicode="F" horiz-adv-x="1202" d="M174 0h84v682h686v82h-686v588h766v82h-850v-1434z" />
<glyph unicode="G" horiz-adv-x="1396" d="M127 715q0 -150 56.5 -283t158.5 -233q100 -102 233.5 -158.5t282.5 -56.5q199 0 373 102v424q0 59 -24.5 81.5t-86.5 22.5h-270v-82h240q32 0 43.5 -13t11.5 -40v-344q-131 -69 -287 -69h-4q-131 0 -246.5 50t-206.5 140q-90 90 -139 208t-49 249q0 133 49 252.5 t139 210.5q90 90 208 141t249 51q176 0 328 -90l24 35q8 18 23 35q-176 102 -375 102q-150 0 -283 -57.5t-233 -157.5q-102 -102 -158.5 -236.5t-56.5 -283.5z" />
<glyph unicode="H" horiz-adv-x="1433" d="M193 0h83v682h881v-682h84l4 717q0 477 2 717h-90v-670h-881v670h-83v-1434z" />
<glyph unicode="I" horiz-adv-x="507" d="M213 0h84v1434h-84v-1434z" />
<glyph unicode="J" horiz-adv-x="638" d="M37 -211v-82q88 2 166 35t135 94q123 129 123 348v1250h-86v-1244q0 -180 -96 -288q-90 -102 -242 -113z" />
<glyph unicode="K" horiz-adv-x="1228" d="M137 0h84v637l88 86l90 84l195 -248l123 -156l317 -403h105l-340 432l-342 430l602 572h-111l-346 -330l-348 -332l-18 -20l-19 -23q4 45 4 62v643h-84v-1434z" />
<glyph unicode="L" horiz-adv-x="1214" d="M174 0h879v82h-795v1352h-84v-1434z" />
<glyph unicode="M" horiz-adv-x="1918" d="M205 0h86v1178q-4 53 -4 82l12 -19l12 -20l86 -111l279 -362l278 -365l338 436q133 168 330 441q0 -29 -4 -82v-1178h86v1499l-375 -485l-375 -488l-374 488l-375 485v-1499z" />
<glyph unicode="N" horiz-adv-x="1665" d="M205 0h86v1231q-2 10 -2 33l-4 32q-2 4 20 -26l19 -27q526 -612 1132 -1309v1500h-86v-1241l4 -33q0 -23 2 -33l-18 27q-23 31 -21 26q-356 414 -565 660q-224 260 -224 261l1 -1q-172 197 -344 399v-1499z" />
<glyph unicode="O" horiz-adv-x="1720" d="M127 715q0 -150 56.5 -283t158.5 -233q100 -102 233.5 -158.5t282.5 -56.5q150 0 284 56t236 159q100 100 157.5 233t57.5 283t-57 284t-158 236q-102 100 -236 157.5t-284 57.5t-283 -57.5t-233 -157.5q-102 -102 -158.5 -236.5t-56.5 -283.5zM213 713q0 133 49 252.5 t139 210.5q90 90 208 141t249 51t251 -50t208 -140q90 -92 140 -211t50 -252t-50 -252t-140 -207q-90 -90 -210 -140t-251 -50t-247.5 50t-207.5 140q-90 88 -139 206t-49 251z" />
<glyph unicode="P" horiz-adv-x="950" d="M152 0h84v674h227q207 0 320.5 103.5t113.5 281.5q0 94 -42 167.5t-114 121.5q-63 43 -139 64.5t-143 21.5h-307v-1434zM236 758v594h215q73 0 140.5 -23.5t117.5 -64.5q49 -41 76.5 -94.5t27.5 -110.5q0 -119 -74 -199q-98 -102 -290 -102h-213z" />
<glyph unicode="Q" horiz-adv-x="1724" d="M127 715q0 -150 56.5 -283t158.5 -233q100 -102 233.5 -158.5t282.5 -56.5q70 0 152 16h628v82h-436q86 43 159 108.5t124 147.5q108 170 108 373q0 154 -57 288t-158 236q-102 100 -236 157.5t-284 57.5t-283 -57.5t-233 -157.5q-102 -102 -158.5 -236.5t-56.5 -283.5z M213 713q0 133 49 252.5t139 210.5q90 90 208 141t249 51t251 -50t208 -140q90 -92 140 -211t50 -252t-50 -252t-140 -207q-92 -90 -211 -140t-252 -50q-131 0 -246.5 50t-206.5 140q-90 90 -139 208t-49 249z" />
<glyph unicode="R" horiz-adv-x="1034" d="M152 0h84v674h194q23 0 72 4l160 -338l159 -340h92l-159 342q-18 37 -121 252l-43 92q147 31 227 128t80 245q0 94 -42 167.5t-114 121.5q-63 43 -139 64.5t-143 21.5h-307v-1434zM236 758v594h215q73 0 140.5 -23.5t117.5 -64.5q49 -41 76.5 -94.5t27.5 -110.5 q0 -119 -74 -199q-98 -102 -290 -102h-213z" />
<glyph unicode="S" horiz-adv-x="1130" d="M135 182q68 -76 156 -127q123 -71 266 -71h4q88 0 168 28.5t137 79.5q125 113 125 289q0 109 -47 184q-92 133 -272 197l-148 49q-127 43 -182 90q-74 63 -74 172q0 123 72 201q76 86 213 86q92 0 176 -39q61 -31 107 -74l24 33q12 20 25 33q-86 71 -166 100t-164 29 q-188 0 -291 -123q-44 -53 -64 -122q-17 -58 -17 -115q0 -11 1 -23q2 -143 123 -234q41 -33 87 -52t104 -38q98 -33 155.5 -54.5t110.5 -53.5q141 -90 141 -250q0 -139 -108 -227q-49 -41 -112.5 -62.5t-133.5 -21.5q-113 0 -211 59q-74 41 -147 115z" />
<glyph unicode="T" horiz-adv-x="1132" d="M0 1352h524v-1352h84v1352h525v82h-1133v-82z" />
<glyph unicode="U" horiz-adv-x="1335" d="M188 463q0 -115 36 -205t102 -152q128 -122 341 -122h3.5h2.5q211 0 343 122q68 61 103.5 151.5t35.5 205.5v971h-86v-965q0 -193 -113 -299q-115 -104 -286 -104q-86 0 -159 26.5t-126 77.5q-113 109 -113 299v965h-84v-971z" />
<glyph unicode="V" horiz-adv-x="1478" d="M111 1434l317 -750l317 -750l318 750l317 750h-86q-88 -211 -264 -625l-76 -178l-190 -449l-8 -28q-8 -23 -11 -29l-8 29q-8 23 -10 28l-264 627l-92 217q-78 174 -174 408h-86z" />
<glyph unicode="W" horiz-adv-x="2269" d="M111 1434l317 -750l317 -750q33 80 138 312l61 141q92 209 182 457l19 -56l362 -854l318 750l317 750h-86l-192 -453q-121 -291 -338 -799l-8 -28q-8 -23 -11 -29l-8 29q-8 23 -10 28q-246 569 -528 1252h-89l166 -390l45 -108l-176 -404q-90 -197 -162 -407l-8 29 q-8 23 -10 28l-266 625l-264 627h-86z" />
<glyph unicode="X" horiz-adv-x="1433" d="M190 0h105l299 467l100 156l11 20q8 12 10 19q20 -27 35 -54l30 -53l363 -555h104q-156 242 -235 362q-80 121 -236 363l228 354l227 355h-103l-190 -299q-63 -100 -139 -213l-56 -86l-8 -19l-12 -18l-8 18l-13 19l-55 86q-76 113 -139 213t-139 213l-56 86h-102 l227 -349l226 -350l-236 -366q-47 -70 -195 -301z" />
<glyph unicode="Y" horiz-adv-x="1306" d="M70 1434q74 -127 163 -275l103 -170l264 -446v-543h102v543l529 891h-105q-217 -373 -450 -758l-23 -58h-2l-12 29l-12 29q-74 129 -226 379t-227 379h-104z" />
<glyph unicode="Z" horiz-adv-x="1433" d="M166 0h1145v82h-1037l490 637q324 422 487 633v82h-903q-35 0 -48 11t-13 36v24h-86v-45q0 -57 33.5 -82.5t99.5 -25.5h809q-164 -211 -488 -633l-489 -637v-82z" />
<glyph unicode="[" horiz-adv-x="692" d="M170 -305h358v84h-270v1665h270v84h-358v-1833z" />
<glyph unicode="\" horiz-adv-x="708" d="M20 1507l285 -772l285 -774h94l-285 774l-284 772h-95z" />
<glyph unicode="]" horiz-adv-x="700" d="M156 -221v-84h358v1833h-358v-84h270v-1665h-270z" />
<glyph unicode="^" horiz-adv-x="962" d="M229 981h68l90 125q57 82 88 123l90 -123q45 -68 88 -125h68l-123 186l-123 185l-123 -185z" />
<glyph unicode="_" horiz-adv-x="1228" d="M205 0h819v84h-819v-84z" />
<glyph unicode="`" horiz-adv-x="409" d="M-59 1253l102 -135l102 -137h68l-92 137l-92 135h-88z" />
<glyph unicode="a" horiz-adv-x="1030" d="M100 385q0 -82 31 -154.5t88 -128.5q55 -55 129 -85.5t156 -30.5q119 0 215 61q88 57 112 131v-43q-2 -14 -2 -43v-92h78v768h-69l-4 -90q-4 -61 -5 -90q-14 37 -44.5 72.5t-71.5 62.5q-96 61 -209 61q-82 0 -156 -30.5t-129 -85.5t-87 -129t-32 -154zM186 385 q0 66 25 124t68 101t100 67.5t125 24.5q133 0 225 -92q43 -43 67.5 -101t24.5 -124q0 -131 -92 -223t-225 -92q-68 0 -125 24.5t-100 67.5q-92 92 -93 223z" />
<glyph unicode="b" horiz-adv-x="1083" d="M168 0h78v92v43q-2 14 -2 43q27 -74 114 -131q92 -61 213 -61q82 0 156 30.5t131 85.5q55 55 86 128t31 155q0 80 -31 152.5t-86 130.5q-57 55 -131 85.5t-156 30.5q-113 0 -209 -61q-43 -27 -73.5 -62.5t-42.5 -70.5l4 47q0 16 4 45v854h-86v-1536zM254 385 q0 66 24.5 124t67.5 101t100.5 67.5t124.5 24.5q66 0 125.5 -24.5t102.5 -67.5t66.5 -101t23.5 -124q0 -129 -90 -223q-43 -43 -102.5 -67.5t-125.5 -24.5q-68 0 -125 24.5t-100 67.5q-92 92 -92 223z" />
<glyph unicode="c" horiz-adv-x="794" d="M74 385q0 -82 30.5 -154.5t88.5 -128.5q55 -55 127.5 -85.5t154.5 -30.5q139 0 254 88q-14 20 -28.5 35.5t-24.5 27.5q-82 -67 -201 -67q-66 0 -123 24.5t-100 67.5q-92 92 -92 223q0 66 24.5 124t67.5 101t100.5 67.5t122.5 24.5q111 0 201 -69l29 33q16 20 26 30 q-51 43 -116.5 65.5t-139.5 22.5q-82 0 -154.5 -30.5t-127.5 -85.5t-87 -129t-32 -154z" />
<glyph unicode="d" horiz-adv-x="1073" d="M109 385q0 -84 30.5 -155.5t85.5 -127.5q55 -55 129 -85.5t156 -30.5q119 0 215 61q88 57 113 131v-178h75v1536h-84v-854l5 -45l4 -47q-12 35 -43 70.5t-74 62.5q-96 61 -211 61q-82 0 -155.5 -30.5t-129.5 -85.5q-55 -55 -85.5 -129t-30.5 -154zM195 385q0 66 24.5 124 t67.5 101t100 67.5t123 24.5t125 -24.5t102 -67.5t67.5 -101t24.5 -124q0 -131 -92 -223q-43 -43 -102.5 -67.5t-124.5 -24.5q-66 0 -123 24.5t-100 67.5q-92 92 -92 223z" />
<glyph unicode="e" horiz-adv-x="923" d="M74 385q0 80 31.5 153.5t87.5 129.5q55 55 123.5 85.5t144.5 30.5q71 0 139 -33.5t111 -82.5q115 -129 114 -308h-663q0 -66 41 -133t112.5 -112t159.5 -45q129 0 215 86q10 -10 27 -31q25 -31 26 -33q-117 -106 -268 -106q-82 0 -154.5 30.5t-127.5 85.5q-57 55 -88 128 t-31 155zM162 442h583q-8 47 -37.5 100.5t-60.5 82.5q-33 35 -82 61.5t-104 26.5q-60 0 -115 -24.5t-94 -63.5q-29 -29 -55.5 -79t-34.5 -104z" />
<glyph unicode="f" horiz-adv-x="602" d="M45 688h133v-688h84v688h256v84h-256v291q0 174 100 285q45 51 107.5 77.5t132.5 28.5v82q-90 -4 -168 -36t-133 -91q-59 -61 -91 -150.5t-32 -197.5v-289h-133v-84z" />
<glyph unicode="g" horiz-adv-x="1060" d="M100 385q0 -82 31 -154.5t88 -128.5q55 -55 129 -85.5t156 -30.5q117 2 205 57t120 133l-4 -47l-4 -47v-148q0 -78 -23.5 -144t-66.5 -116q-41 -47 -97 -72.5t-120 -25.5q-72 0 -140.5 25.5t-111.5 72.5l-31 -30l-30 -33q53 -57 139 -89t176 -34q82 2 152.5 32.5 t124.5 88.5q55 57 84.5 139t29.5 180v840h-69l-4 -90q-4 -61 -5 -90q-14 37 -44.5 72.5t-71.5 62.5q-96 61 -209 61q-82 0 -156 -30.5t-129 -85.5t-87 -129t-32 -154zM186 385q0 66 25 124t68 101t100 67.5t125 24.5q133 0 225 -92q43 -43 67.5 -101t24.5 -124 q0 -131 -92 -223t-225 -92q-68 0 -125 24.5t-100 67.5q-92 92 -93 223z" />
<glyph unicode="h" horiz-adv-x="1024" d="M211 0h86v420q0 59 24.5 110.5t69.5 90.5q43 37 100.5 58t118.5 21q82 -4 128 -51t50 -117v-532h86v555q-4 104 -70.5 166.5t-176.5 62.5q-117 -4 -206 -60t-130 -155l6 93v874h-86v-1536z" />
<glyph unicode="i" horiz-adv-x="382" d="M129 1040q0 -28 20.5 -47.5t47.5 -19.5t47 19.5t20 47.5q0 29 -20.5 48.5t-46.5 19.5q-27 0 -47.5 -19.5t-20.5 -48.5zM154 0h84v768h-84v-768z" />
<glyph unicode="j" horiz-adv-x="460" d="M86 -307l61 -62q136 130 136 361v776h-84v-778q0 -184 -113 -297zM176 1040q0 -28 20.5 -47.5t47.5 -19.5q25 0 45 19.5t20 47.5q0 29 -20.5 48.5t-44.5 19.5q-27 0 -47.5 -19.5t-20.5 -48.5z" />
<glyph unicode="k" horiz-adv-x="919" d="M158 0h86v285q23 18 65 61l66 62q98 -135 149 -203l152 -205h100q-115 156 -170 233l-170 232l144 135q39 39 141 133l-51 53l-213 -198l-213 -199v1147h-86v-1536z" />
<glyph unicode="l" horiz-adv-x="382" d="M154 0h84v1536h-84v-1536z" />
<glyph unicode="m" horiz-adv-x="1630" d="M211 0h86v420q0 59 24.5 110.5t69.5 90.5q43 37 100.5 58t118.5 21q82 -4 128 -51t50 -117v-532h86v426q2 117 97 197q43 37 100 57t119 20q82 -4 128 -51t50 -117v-532h84v555q-4 104 -70.5 166.5t-177.5 62.5q-111 -2 -200 -57t-132 -147q-10 94 -76.5 149t-168.5 55 q-117 -2 -206 -59t-130 -156q-2 23 -2 64v63v72h-78v-768z" />
<glyph unicode="n" horiz-adv-x="1013" d="M211 0h86v420q0 59 24.5 110.5t69.5 90.5q43 37 100.5 58t118.5 21q82 -4 128 -51t50 -117v-532h86v555q-4 104 -70.5 166.5t-176.5 62.5q-115 0 -205 -58t-131 -157q-2 23 -2 64v63v72h-78v-768z" />
<glyph unicode="o" horiz-adv-x="964" d="M74 385q0 -82 30.5 -154.5t88.5 -128.5q55 -55 127.5 -85.5t154.5 -30.5t156 30.5t131 85.5t88 128t31 155q0 80 -32 154.5t-87 130.5q-57 55 -131 85.5t-156 30.5t-154.5 -30.5t-127.5 -85.5t-87 -130t-32 -155zM160 385q0 131 92 223q45 45 102.5 69.5t120.5 24.5 t120.5 -24.5t102.5 -69.5t70 -102t25 -121q0 -63 -25 -120.5t-70 -102.5q-92 -92 -223 -92t-223 92t-92 223z" />
<glyph unicode="p" horiz-adv-x="1075" d="M137 -512h86v602l-8 84q12 -37 42 -70.5t73 -60.5q94 -59 211 -59q84 0 156.5 30.5t129.5 87.5q55 55 86 128t31 153t-30.5 153.5t-86.5 129.5q-57 55 -130.5 85.5t-155.5 30.5q-117 0 -211 -63q-92 -63 -117 -135v92q-2 31 -2 92h-74v-1280zM223 383q0 133 92 225 q43 43 101.5 66.5t124.5 23.5t124 -23.5t103 -66.5q90 -94 90 -225q0 -66 -23.5 -124t-66.5 -101t-102.5 -67.5t-124.5 -24.5q-68 0 -125.5 24.5t-100.5 67.5t-67.5 101t-24.5 124z" />
<glyph unicode="q" horiz-adv-x="1048" d="M104 383q0 -80 32 -152.5t87 -128.5q55 -55 128 -86.5t157 -31.5q115 0 213 59q84 51 115 131q-6 -29 -11 -84v-602h86v1280h-73v-92q0 -61 -2 -92q-25 72 -117 135q-94 63 -211 63q-82 0 -155.5 -30.5t-129.5 -85.5q-55 -55 -87 -129t-32 -154zM190 383q1 133 93 225 q94 90 225 90q66 0 124 -23.5t103 -66.5q92 -92 92 -225q0 -66 -24.5 -124t-67.5 -101t-102.5 -67.5t-124.5 -24.5q-133 0 -225 92q-43 43 -68 101t-25 124z" />
<glyph unicode="r" horiz-adv-x="677" d="M211 0h86v420q0 59 23.5 110.5t66.5 87.5q88 80 219 82l6 84q-96 -2 -187 -60t-134 -155q-2 23 -2 64v63v72h-78v-768z" />
<glyph unicode="s" horiz-adv-x="720" d="M117 80q39 -47 105.5 -71.5t135.5 -24.5q125 0 193 82q55 68 55 149q0 66 -26 104q-51 70 -160 105q-59 18 -90 33q-47 18 -73 44.5t-28 67.5q0 66 43 99q36 28 91 28h4q45 0 90 -18.5t69 -46.5q10 16 25 31l24 30q-38 45 -98.5 66.5t-111.5 21.5q-37 0 -77 -13t-71 -40 q-74 -59 -74 -160q0 -66 29 -104q53 -68 162 -94l92 -31q47 -20 70.5 -50t23.5 -79q0 -68 -59 -109q-42 -32 -93 -32h-3q-55 0 -108.5 19t-84.5 54l-29 -30q-16 -20 -26 -31z" />
<glyph unicode="t" horiz-adv-x="587" d="M76 682h178v-682h86v682h235v84h-235v502h-86v-502h-178v-84z" />
<glyph unicode="u" horiz-adv-x="1083" d="M211 213q4 -104 70.5 -166.5t177.5 -62.5q113 0 204 58t132 157l-7 -93v-114h86v776h-86v-420q0 -59 -24.5 -110.5t-69.5 -90.5q-43 -37 -100 -58t-119 -21q-82 4 -128 51t-50 117v532h-86v-555z" />
<glyph unicode="v" horiz-adv-x="1024" d="M111 768q115 -227 211 -408l208 -407l420 815h-86q-98 -193 -172 -328q-84 -156 -162 -331q-78 176 -161 331q-98 184 -172 328h-86z" />
<glyph unicode="w" horiz-adv-x="1581" d="M115 768l407 -815l140 278l139 279l139 -279l139 -278l408 815h-86l-164 -328q-92 -184 -158 -331q-66 147 -157 331l-164 328h-86l43 -86q12 -29 41 -86l-119 -244q-66 -127 -115 -243q-66 147 -157 331l-164 328h-86z" />
<glyph unicode="x" horiz-adv-x="862" d="M74 0h106l117 162q37 55 115 162l120 -162l76 -105l43 -57h107q-47 61 -137 184l-138 187q4 6 54 71q8 12 90 127l143 197h-104l-117 -162l-117 -162l-239 326h-107q70 -100 137 -186l137 -187l-143 -196q-82 -115 -90 -127q-49 -66 -53 -72z" />
<glyph unicode="y" horiz-adv-x="1007" d="M78 768q131 -258 194 -387l193 -385l-127 -254l-127 -254h90q428 854 641 1280h-90q-115 -229 -174 -344q-104 -203 -168 -346q-74 168 -166 346q-119 229 -176 344h-90z" />
<glyph unicode="z" horiz-adv-x="923" d="M86 0h739v84h-620q137 137 291 301q184 193 290 299v84h-514q-34 0 -47.5 11.5t-13.5 35.5v25h-86v-45q0 -57 34 -83t99 -26h410q-137 -137 -291 -301t-291 -301v-84z" />
<glyph unicode="{" horiz-adv-x="595" d="M61 563q89 -2 132 -98q31 -70 30 -178v-305q0 -106 17 -168q16 -61 41 -84q23 -23 54.5 -28t90.5 -5h96v82h-106q-61 0 -84 49t-23 174v289q0 141 -43 227q-31 61 -90 94q61 35 90 93q43 82 43 227v291q0 123 23 174q23 47 84 47h106v84h-96q-57 0 -86 -4t-55 -23 q-61 -45 -62 -215v-352q0 -109 -30 -178q-43 -96 -132 -99v-94z" />
<glyph unicode="|" horiz-adv-x="491" d="M197 -475h86v1909h-86v-1909z" />
<glyph unicode="}" horiz-adv-x="655" d="M133 -221v-82h96q51 0 76 2q80 4 111 94q16 53 16 146v303q0 129 23 196q18 55 51 88t88 37v94q-55 2 -88 36t-51 91q-23 66 -23 195v307q0 170 -61 217q-23 16 -50.5 20.5t-55 4.5h-36.5h-96v-84h107q63 0 86 -47q20 -47 20 -174v-291q0 -145 43 -227q29 -57 90 -93 q-57 -39 -86 -82q-47 -76 -47 -192v-336q0 -131 -20 -174q-20 -49 -86 -49h-107z" />
<glyph unicode="~" horiz-adv-x="1001" d="M262 963q8 -2 27 -2q16 0 24 -3q8 57 52 86q31 18 73 19q31 0 55.5 -12.5t53.5 -44.5q37 -37 72.5 -55.5t76.5 -18.5q68 0 115 39q57 43 59 114q-8 2 -24 2q-18 0 -29 3q-8 -59 -49 -84q-31 -20 -74 -21q-31 0 -55.5 12.5t-54.5 44.5q-68 74 -148 74q-66 0 -114 -37 q-57 -45 -60 -116z" />
<glyph unicode="&#xa0;" />
<glyph unicode="&#xa1;" horiz-adv-x="409" d="M139 993q0 29 20.5 48.5t45.5 19.5q24 0 44.5 -19.5t20.5 -48.5t-20.5 -48t-44.5 -19q-25 0 -45.5 19.5t-20.5 47.5zM162 -430v1196h86v-1196h-86z" />
<glyph unicode="&#xa2;" horiz-adv-x="788" d="M74 385q0 -145 96 -258q45 -53 107.5 -88t134.5 -45v-133h86v127q133 4 231 86q-14 20 -28.5 35.5t-24.5 27.5q-76 -61 -178 -67v628q98 -4 178 -65l29 33q16 20 26 30q-98 78 -233 88v113h-86v-119q-72 -10 -134.5 -44t-107.5 -87t-70.5 -121.5t-25.5 -140.5zM160 385 q-1 113 71 201t181 102v-608q-111 20 -181.5 104t-70.5 201z" />
<glyph unicode="&#xa3;" horiz-adv-x="1175" d="M55 0h748q156 0 209 53q20 23 26 51.5t6 71.5v121h-86v-107q0 -61 -47 -84q-51 -23 -174 -22h-444q29 27 37 70t8 114v338h254v84h-254v322q0 98 68.5 150t222.5 52q106 0 172 -38q49 -31 92 -107l33 21l30 18q-45 90 -122.5 140t-204.5 50q-180 0 -278.5 -67.5 t-98.5 -206.5v-334h-133v-84h133v-256q0 -88 -3 -136t-13 -75q-12 -31 -33 -43t-58 -12h-90v-84z" />
<glyph unicode="&#xa4;" horiz-adv-x="1024" d="M203 489l61 -59l72 70q76 -53 170 -54q96 0 172 56l37 -35q16 -18 35 -35l59 60l-70 71q61 78 62 176q0 96 -58 172l66 64l-61 61l-66 -67q-78 63 -176 63t-176 -61l-66 65l-61 -59l33 -33l32 -35q-55 -76 -55 -170q0 -100 61 -178zM299 739q0 87 61 148t146 61 q43 0 83 -16.5t66 -44.5q59 -63 60 -148q0 -86 -60 -149q-27 -29 -66.5 -45.5t-82.5 -16.5q-84 0 -146 62q-61 61 -61 149z" />
<glyph unicode="&#xa5;" horiz-adv-x="1306" d="M70 1434l241 -406l242 -405h-246v-84h293v-250h-293v-84h293v-205h102v205h287v84h-287v250h287v84h-241l241 405l242 406h-105q-217 -373 -450 -758l-23 -58h-2l-12 29l-12 29q-293 483 -453 758h-104z" />
<glyph unicode="&#xa6;" horiz-adv-x="440" d="M182 240v-717h86v717h-86zM182 717h86v717h-86v-717z" />
<glyph unicode="&#xa7;" horiz-adv-x="1024" d="M274 737q0 -53 15.5 -90t31 -61.5t19.5 -32.5l35 -59q29 -51 108 -183q62 -108 68 -157q4 -53 -49 -80l-92 -56l43 -71q31 18 77 43q39 20 70 53q43 43 45 92q0 63 -61 172l-56 96l-57 97q47 -14 80 -15q63 0 117 35q84 59 106 156q6 29 6 57q0 74 -35 129l-90 156 l-90 153q-61 102 -61 150q0 47 51 74l92 55l-43 72q-31 -18 -78 -43q-43 -25 -71 -54q-43 -43 -43 -92q-4 -61 59 -172l55 -96l56 -94q-51 14 -86 14q-53 0 -101.5 -28.5t-77.5 -73.5q-43 -70 -43 -146zM358 741q0 47 23 88q39 74 131 82q66 4 123 -41q53 -43 63 -118 q2 -70 -39 -125q-45 -59 -116 -62q-57 -4 -105.5 27t-66.5 86q-13 30 -13 63z" />
<glyph unicode="&#xa8;" horiz-adv-x="757" d="M141 1040q0 -28 20.5 -47.5t47.5 -19.5q25 0 45 19.5t20 47.5q0 29 -20.5 48.5t-44.5 19.5q-27 0 -47.5 -19.5t-20.5 -48.5zM479 1040q0 -28 20.5 -47.5t47.5 -19.5t46 19.5t19 47.5q0 29 -19.5 48.5t-45.5 19.5q-27 0 -47.5 -19.5t-20.5 -48.5z" />
<glyph unicode="&#xa9;" horiz-adv-x="1624" d="M291 762q0 -111 40 -207t113 -168q74 -72 170.5 -111.5t204.5 -39.5q109 0 205 39.5t170 111.5t114 168t40 207q0 113 -40 210t-114 169t-170 110.5t-205 38.5t-205 -39t-170 -110q-74 -72 -113.5 -169.5t-39.5 -209.5zM340 760q0 102 38 191t103 155q66 66 153 101.5 t183 35.5q98 0 187.5 -36t154.5 -101q66 -66 102.5 -155t36.5 -191q0 -100 -36.5 -187.5t-102.5 -152.5q-66 -66 -155 -101.5t-187 -35.5q-96 0 -183 35.5t-153 101.5q-68 68 -104.5 153.5t-36.5 186.5zM500 768q0 -68 25.5 -128t70.5 -105t106.5 -72t126.5 -27q94 0 170 47 l-22 31q-78 -41 -150 -41q-115 0 -202 88q-86 86 -86 205q0 61 22.5 115.5t63.5 95.5q86 86 204 86q78 0 150 -41q16 29 20 33q-76 45 -170 45q-68 0 -128 -25.5t-105 -70.5t-70.5 -106.5t-25.5 -129.5z" />
<glyph unicode="&#xaa;" horiz-adv-x="1198" d="M190 905q0 -59 23 -111.5t63 -93.5q39 -39 92.5 -61.5t112.5 -22.5q90 0 156 43t82 97v-31q-2 -10 -2 -33v-65h57v553h-51q0 -18 -3 -59.5t-3 -69.5q-27 61 -84 98q-72 43 -152 43q-59 0 -112.5 -22.5t-92.5 -61.5t-62.5 -93t-23.5 -110zM254 905q-1 96 65 162t162 66 q98 0 164 -66t66 -162t-66 -162t-164 -65q-96 0 -162 65q-66 66 -65 162z" />
<glyph unicode="&#xab;" horiz-adv-x="1230" d="M240 489l350 -331v98l-228 233l115 117l113 115v98l-174 -164zM590 489l350 -331v98l-227 233q75 80 227 232v98l-174 -164z" />
<glyph unicode="&#xac;" horiz-adv-x="1144" d="M205 432h651v-129h86v197h-737v-68z" />
<glyph unicode="&#xad;" d="M109 346h376v84h-376v-84z" />
<glyph unicode="&#xae;" horiz-adv-x="1640" d="M291 762q0 -111 40 -207t113 -168q74 -72 170.5 -111.5t204.5 -39.5q109 0 205 39.5t170 111.5t114 168t40 207q0 113 -40 210t-114 169t-170 110.5t-205 38.5t-205 -39t-170 -110q-74 -72 -113.5 -169.5t-39.5 -209.5zM340 760q0 102 38 191t103 155q66 66 153 101.5 t183 35.5q98 0 187.5 -36t154.5 -101q66 -66 102.5 -155t36.5 -191q0 -100 -36.5 -187.5t-102.5 -152.5q-66 -66 -155 -101.5t-187 -35.5q-96 0 -183 35.5t-153 101.5q-68 68 -104.5 153.5t-36.5 186.5zM674 430h39v320h92h18q10 0 17 2l151 -322h43q-35 70 -76 162l-77 162 q72 16 108.5 62t36.5 114q0 86 -74 137q-59 41 -133 41h-145v-678zM713 788v281h102q72 0 122 -42t50 -97q0 -51 -35 -92q-45 -49 -137 -50h-102z" />
<glyph unicode="&#xaf;" horiz-adv-x="817" d="M174 995h471v62h-471v-62z" />
<glyph unicode="&#xb0;" horiz-adv-x="577" d="M104 1145q0 -74 51.5 -124t127.5 -50q74 0 125 50t51 124q0 76 -51.5 127t-124.5 51q-76 0 -127.5 -51t-51.5 -127zM166 1147q0 47 33.5 81t83.5 34q47 0 81.5 -34t34.5 -81q0 -49 -34.5 -83t-81.5 -34q-50 0 -83.5 34t-33.5 83z" />
<glyph unicode="&#xb1;" horiz-adv-x="1073" d="M176 250h737v82h-737v-82zM176 760h326v-328h86v328h325v84h-325v325h-86v-325h-326v-84z" />
<glyph unicode="&#xb2;" horiz-adv-x="815" d="M207 1237q0 -41 15.5 -77t39.5 -60l14 12l13 12q-39 45 -39 113q0 59 29 100q41 55 120 56q53 0 97 -37q49 -45 49 -137q0 -49 -27 -101q-47 -92 -182 -227l-125 -123h420v41h-316l64 68l33 34q61 70 88 105q88 119 88 215q0 88 -51 145t-138 58q-92 0 -143 -58 q-49 -55 -49 -139z" />
<glyph unicode="&#xb3;" horiz-adv-x="858" d="M180 840q63 -70 156 -70q88 0 149 61t62 150q0 86 -55 141q-53 53 -140 64l178 248h-325v-41h250l-93 -133l-92 -132q27 21 64 21q72 0 121 -49q51 -51 51 -119t-51 -119t-121 -51t-123 59z" />
<glyph unicode="&#xb4;" horiz-adv-x="491" d="M205 981h67l103 137l102 135h-88l-92 -135z" />
<glyph unicode="&#xb5;" horiz-adv-x="1116" d="M211 -412h86v469q25 -35 67 -54t95 -19q117 2 206 59t130 156l-7 -93v-114h86v776h-86v-420q0 -59 -24.5 -110.5t-69.5 -90.5q-43 -37 -100 -58t-119 -21q-82 4 -128 51t-50 117v532h-86v-1180z" />
<glyph unicode="&#xb6;" horiz-adv-x="1048" d="M78 1200q0 -68 25.5 -130t70.5 -107t107.5 -71t130.5 -26v-866h86v1452h247v-1452h86v1536h-419q-68 0 -130.5 -26.5t-107.5 -71.5t-70.5 -107.5t-25.5 -130.5z" />
<glyph unicode="&#xb7;" horiz-adv-x="337" d="M109 575q0 -28 20.5 -47.5t46.5 -19.5q25 0 45.5 19.5t20.5 47.5q0 29 -20.5 48.5t-45.5 19.5q-27 0 -47 -19.5t-20 -48.5z" />
<glyph unicode="&#xb8;" horiz-adv-x="925" d="M240 -346q23 -66 72.5 -99.5t113.5 -33.5q86 0 137 55t51 152q0 41 -20.5 79.5t-61.5 67.5l-26 16q-20 12 -29 21q-31 27 -31 76v12h-59v-47q0 -35 19.5 -55.5t60.5 -47.5q37 -25 58.5 -53t21.5 -73q0 -57 -36 -96.5t-91 -39.5q-47 0 -80 26t-43 64z" />
<glyph unicode="&#xb9;" horiz-adv-x="530" d="M133 1395h88v-574h39v613h-127v-39z" />
<glyph unicode="&#xba;" horiz-adv-x="960" d="M186 905q0 -59 22.5 -112.5t63.5 -92.5q88 -84 203 -84q59 0 113.5 23t95.5 61q84 80 84 205q0 57 -22.5 111.5t-61.5 93.5q-41 41 -94 62.5t-115 21.5q-119 0 -203 -84q-41 -41 -63.5 -94t-22.5 -111zM248 905q-1 92 67 160t160 68q94 0 162 -68t68 -160q0 -94 -68 -162 q-66 -66 -162 -65q-94 0 -160 65q-68 68 -67 162z" />
<glyph unicode="&#xbb;" horiz-adv-x="1230" d="M240 158v98l227 233q-75 80 -227 232v98l57 -53q37 -37 119 -111l174 -166zM590 158v98l227 233l-112 117q-39 37 -76 76l-39 39v98l57 -53q37 -37 119 -111l174 -166z" />
<glyph unicode="&#xbc;" horiz-adv-x="1982" d="M268 1364h138v-885h61v944h-199v-59zM571 -39h86l285 774l285 770h-86l-285 -770zM1026 279h494v-279h63v279h148v63h-148v662zM1157 342q41 55 127 166l55 72q4 6 66 84l115 151v-473h-363z" />
<glyph unicode="&#xbd;" horiz-adv-x="2189" d="M248 1364h139v-885h59v944h-198v-59zM571 -39h86l285 774l285 770h-86l-285 -770zM1167 672q0 -57 21.5 -110.5t60.5 -86.5l19 21l16 16q-55 66 -55 160q0 35 10 74.5t33 68.5q25 35 67.5 57.5t102.5 22.5q82 0 137 -53q74 -74 74 -195t-148 -303q-82 -98 -299 -311 l-32 -33h602v59h-453l45 47q14 14 89 95.5t130 154.5q127 170 127 308q0 61 -19.5 114t-54.5 92q-80 84 -198 84q-125 0 -203 -84q-35 -39 -53.5 -90t-18.5 -108z" />
<glyph unicode="&#xbe;" horiz-adv-x="2613" d="M301 516q45 -51 108.5 -78.5t135.5 -27.5q68 0 128 25.5t105 70.5t72 106.5t27 126.5q0 131 -89 224q-43 43 -100 68.5t-119 29.5l281 389h-512v-64h393q-55 -78 -233 -335l-56 -80q40 33 99 33q55 0 104 -19.5t86 -56.5q78 -78 78 -189q0 -109 -78 -186 q-37 -37 -86 -58.5t-104 -21.5t-104.5 24.5t-86.5 67.5zM930 -39h86l284 774l285 772h-86l-285 -772zM1434 279h493v-279h64v279h147v63h-147v662zM1563 342q241 315 364 473v-473h-364z" />
<glyph unicode="&#xbf;" horiz-adv-x="874" d="M72 4q0 -80 30.5 -153.5t85.5 -126.5q55 -55 128 -87t157 -32q152 0 260 92q90 80 131 197l-37 12q-25 6 -39 14q-34 -110 -116 -170.5t-199 -60.5q-135 0 -225 90t-90 225q0 78 32 143q47 102 195 191q47 29 82 57q39 35 59.5 75t20.5 99v199h-86v-160q0 -57 -17 -100 q-31 -68 -102 -111q-53 -35 -70 -47q-201 -143 -200 -346zM438 1006q0 -29 20.5 -48.5t45.5 -19.5q27 0 47 19.5t20 48.5t-20.5 48t-46.5 19q-25 0 -45.5 -19.5t-20.5 -47.5z" />
<glyph unicode="&#xc0;" horiz-adv-x="1515" d="M123 0h88l131 307l129 307h576l131 -307l129 -307h86l-318 750l-317 749l-318 -749zM506 696q57 133 133 305q74 172 119 308q2 -6 10 -29l8 -29l236 -555h-506zM522 1808l103 -135l102 -137h68l-93 137l-92 135h-88z" />
<glyph unicode="&#xc1;" horiz-adv-x="1515" d="M123 0h88l131 307l129 307h576l131 -307l129 -307h86l-318 750l-317 749l-318 -749zM506 696q57 133 133 305q74 172 119 308q2 -6 10 -29l8 -29l236 -555h-506zM717 1536h67l103 137l102 135h-88l-92 -135z" />
<glyph unicode="&#xc2;" horiz-adv-x="1515" d="M123 0h88l131 307l129 307h576l131 -307l129 -307h86l-318 750l-317 749l-318 -749zM506 696q57 133 133 305q74 172 119 308q2 -6 10 -29l8 -29l236 -555h-506zM514 1536h68l90 125q57 82 88 123l90 -123q45 -68 88 -125h68l-123 186l-123 185l-123 -185z" />
<glyph unicode="&#xc3;" horiz-adv-x="1515" d="M123 0h88l131 307l129 307h576l131 -307l129 -307h86l-318 750l-317 749l-318 -749zM449 1565q8 -2 26 -2q16 0 25 -2q8 57 51 86q31 18 74 18q31 0 55.5 -12.5t52.5 -44.5q37 -37 73 -55.5t77 -18.5q68 0 114 39q57 43 60 115q-8 2 -25 2q-18 0 -28 2q-8 -59 -50 -84 q-31 -20 -73 -21q-31 0 -55.5 12.5t-55.5 45.5q-68 74 -147 73q-66 0 -115 -37q-57 -45 -59 -116zM506 696q57 133 133 305q74 172 119 308q2 -6 10 -29l8 -29l236 -555h-506z" />
<glyph unicode="&#xc4;" horiz-adv-x="1515" d="M123 0h88l131 307l129 307h576l131 -307l129 -307h86l-318 750l-317 749l-318 -749zM506 696q57 133 133 305q74 172 119 308q2 -6 10 -29l8 -29l236 -555h-506zM524 1634q0 -28 20.5 -47.5t47.5 -19.5q25 0 45 19.5t20 47.5q0 29 -20.5 48.5t-44.5 19.5 q-27 0 -47.5 -19.5t-20.5 -48.5zM862 1634q0 -28 20.5 -47.5t47.5 -19.5t46 19.5t19 47.5q0 29 -19.5 48.5t-45.5 19.5q-27 0 -47.5 -19.5t-20.5 -48.5z" />
<glyph unicode="&#xc5;" horiz-adv-x="1515" d="M123 0h88l131 307l129 307h576l131 -307l129 -307h86l-318 750l-317 749l-318 -749zM506 696q57 133 133 305q74 172 119 308q2 -6 10 -29l8 -29l236 -555h-506zM610 1712q0 -63 44 -106t106 -43q61 0 105 43t44 106q0 61 -44 104.5t-105 43.5t-105.5 -43t-44.5 -105z M674 1710q0 35 25.5 61.5t60.5 26.5t61.5 -26.5t26.5 -61.5t-26.5 -60.5t-61.5 -25.5t-60.5 25.5t-25.5 60.5z" />
<glyph unicode="&#xc6;" horiz-adv-x="1622" d="M123 0h86q125 287 256 604h276v-604h701v82h-617v600h508v82h-508v588h588v82h-684l-303 -717zM500 686q6 14 13 30.5t15 35.5q41 98 97 225q66 147 116 291v-582h-241z" />
<glyph unicode="&#xc7;" horiz-adv-x="1372" d="M127 715q0 -143 52 -272.5t147 -229.5q94 -100 219 -159.5t266 -67.5v-33q0 -35 19.5 -55.5t60.5 -47.5q37 -25 57.5 -53t20.5 -73q0 -59 -34 -97.5t-93 -38.5q-45 0 -78 25t-45 65l-55 -24q23 -66 71.5 -99.5t112.5 -33.5q86 0 137 55t51 152q0 41 -20.5 79.5 t-61.5 67.5q-8 6 -32.5 19.5t-38 35t-13.5 54.5q195 2 361 102l-47 70q-154 -90 -330 -90q-131 0 -246.5 50t-206.5 140q-90 90 -139 208t-49 249q0 133 49 252.5t139 210.5q90 90 208 141t249 51q176 0 328 -90l24 35q8 18 23 35q-176 102 -375 102q-150 0 -283 -57.5 t-233 -157.5q-102 -102 -158.5 -236.5t-56.5 -283.5z" />
<glyph unicode="&#xc8;" horiz-adv-x="1230" d="M174 0h879v82h-795v600h686v82h-686v588h766v82h-850v-1434zM362 1808l103 -135l102 -137h68l-92 137l-92 135h-89z" />
<glyph unicode="&#xc9;" horiz-adv-x="1230" d="M174 0h879v82h-795v600h686v82h-686v588h766v82h-850v-1434zM555 1536h68l102 137l102 135h-88l-92 -135z" />
<glyph unicode="&#xca;" horiz-adv-x="1230" d="M174 0h879v82h-795v600h686v82h-686v588h766v82h-850v-1434zM369 1536h67l90 125q57 82 88 123l91 -123q45 -68 88 -125h67l-123 186l-123 185l-122 -185z" />
<glyph unicode="&#xcb;" horiz-adv-x="1230" d="M174 0h879v82h-795v600h686v82h-686v588h766v82h-850v-1434zM367 1634q0 -28 20.5 -47.5t46.5 -19.5q25 0 45.5 19.5t20.5 47.5q0 29 -20.5 48.5t-45.5 19.5q-27 0 -47 -19.5t-20 -48.5zM705 1634q0 -28 20 -47.5t47 -19.5t46.5 19.5t19.5 47.5q0 29 -19.5 48.5 t-46.5 19.5t-47 -19.5t-20 -48.5z" />
<glyph unicode="&#xcc;" horiz-adv-x="483" d="M14 1808l103 -135l102 -137h68l-92 137l-93 135h-88zM213 0h84v1434h-84v-1434z" />
<glyph unicode="&#xcd;" horiz-adv-x="483" d="M213 0h84v1434h-84v-1434zM217 1536h68l102 137l102 135h-88l-92 -135z" />
<glyph unicode="&#xce;" horiz-adv-x="524" d="M10 1536h68l90 125q57 82 88 123l90 -123q45 -68 88 -125h68l-123 186l-123 185l-123 -185zM213 0h84v1434h-84v-1434z" />
<glyph unicode="&#xcf;" horiz-adv-x="483" d="M18 1634q0 -28 20.5 -47.5t47.5 -19.5q25 0 45.5 19.5t20.5 47.5q0 29 -20.5 48.5t-45.5 19.5q-27 0 -47.5 -19.5t-20.5 -48.5zM213 0h84v1434h-84v-1434zM356 1634q0 -28 20.5 -47.5t47.5 -19.5t46 19.5t19 47.5q0 29 -19 48.5t-46 19.5t-47.5 -19.5t-20.5 -48.5z" />
<glyph unicode="&#xd0;" horiz-adv-x="1323" d="M45 678h111v-678h219q215 0 374.5 63.5t264.5 174.5q94 100 140 225t46 254q0 160 -58.5 294t-164.5 230q-104 92 -239.5 142.5t-288.5 50.5h-293v-672h-111v-84zM240 82v596h424v84h-424v590h184q152 0 278.5 -43t219.5 -127q94 -84 144 -202t50 -263q0 -141 -52 -258 t-146 -203q-92 -84 -220.5 -129t-273.5 -45h-184z" />
<glyph unicode="&#xd1;" horiz-adv-x="1665" d="M205 0h86v1231q-2 10 -2 33l-4 32q-2 4 20 -26l19 -27q526 -612 1132 -1309v1500h-86v-1241l4 -33q0 -23 2 -33l-18 27q-23 31 -21 26q-356 414 -565 660q-236 274 -223 260q-172 197 -344 399v-1499zM539 1563q8 -2 26 -2q16 0 25 -2q8 57 51 86q31 18 74 18 q31 0 55.5 -12.5t52.5 -44.5q37 -37 73 -55.5t77 -18.5q68 0 114 39q57 43 60 115q-8 2 -25 2q-18 0 -28 2q-8 -59 -50 -84q-31 -20 -73 -21q-31 0 -55.5 12.5t-55.5 44.5q-68 74 -147 74q-66 0 -115 -37q-57 -45 -59 -116z" />
<glyph unicode="&#xd2;" horiz-adv-x="1718" d="M127 715q0 -150 56.5 -283t158.5 -233q100 -102 233.5 -158.5t282.5 -56.5q150 0 284 56t236 159q100 100 157.5 233t57.5 283t-57 284t-158 236q-102 100 -236 157.5t-284 57.5t-283 -57.5t-233 -157.5q-102 -102 -158.5 -236.5t-56.5 -283.5zM213 713q0 133 49 252.5 t139 210.5q90 90 208 141t249 51t251 -50t208 -140q90 -92 140 -211t50 -252t-50 -252t-140 -207q-90 -90 -210 -140t-251 -50t-247.5 50t-207.5 140q-90 88 -139 206t-49 251zM616 1808l103 -135l102 -137h68l-92 137l-92 135h-89z" />
<glyph unicode="&#xd3;" horiz-adv-x="1720" d="M127 715q0 -150 56.5 -283t158.5 -233q100 -102 233.5 -158.5t282.5 -56.5q150 0 284 56t236 159q100 100 157.5 233t57.5 283t-57 284t-158 236q-102 100 -236 157.5t-284 57.5t-283 -57.5t-233 -157.5q-102 -102 -158.5 -236.5t-56.5 -283.5zM213 713q0 133 49 252.5 t139 210.5q90 90 208 141t249 51t251 -50t208 -140q90 -92 140 -211t50 -252t-50 -252t-140 -207q-90 -90 -210 -140t-251 -50t-247.5 50t-207.5 140q-90 88 -139 206t-49 251zM819 1536h68l102 137l103 135h-88l-93 -135z" />
<glyph unicode="&#xd4;" horiz-adv-x="1718" d="M127 715q0 -150 56.5 -283t158.5 -233q100 -102 233.5 -158.5t282.5 -56.5q150 0 284 56t236 159q100 100 157.5 233t57.5 283t-57 284t-158 236q-102 100 -236 157.5t-284 57.5t-283 -57.5t-233 -157.5q-102 -102 -158.5 -236.5t-56.5 -283.5zM213 713q0 133 49 252.5 t139 210.5q90 90 208 141t249 51t251 -50t208 -140q90 -92 140 -211t50 -252t-50 -252t-140 -207q-90 -90 -210 -140t-251 -50t-247.5 50t-207.5 140q-90 88 -139 206t-49 251zM606 1536h68l90 125q57 82 88 123l90 -123q45 -68 88 -125h68l-123 186l-123 185l-123 -185z " />
<glyph unicode="&#xd5;" horiz-adv-x="1718" d="M127 715q0 -150 56.5 -283t158.5 -233q100 -102 233.5 -158.5t282.5 -56.5q150 0 284 56t236 159q100 100 157.5 233t57.5 283t-57 284t-158 236q-102 100 -236 157.5t-284 57.5t-283 -57.5t-233 -157.5q-102 -102 -158.5 -236.5t-56.5 -283.5zM213 713q0 133 49 252.5 t139 210.5q90 90 208 141t249 51t251 -50t208 -140q90 -92 140 -211t50 -252t-50 -252t-140 -207q-90 -90 -210 -140t-251 -50t-247.5 50t-207.5 140q-90 88 -139 206t-49 251zM551 1632q8 -2 27 -2q16 0 24 -2q8 57 51 86q31 18 74 19q31 0 55.5 -12.5t53.5 -45.5 q36 -37 72 -55t77 -18q68 0 115 38q57 43 59 115q-8 2 -24 2q-18 0 -29 2q-8 -59 -49 -84q-31 -20 -74 -20q-31 0 -55.5 12t-55.5 45q-68 74 -147 74q-66 0 -115 -37q-57 -45 -59 -117z" />
<glyph unicode="&#xd6;" horiz-adv-x="1718" d="M127 715q0 -150 56.5 -283t158.5 -233q100 -102 233.5 -158.5t282.5 -56.5q150 0 284 56t236 159q100 100 157.5 233t57.5 283t-57 284t-158 236q-102 100 -236 157.5t-284 57.5t-283 -57.5t-233 -157.5q-102 -102 -158.5 -236.5t-56.5 -283.5zM213 713q0 133 49 252.5 t139 210.5q90 90 208 141t249 51t251 -50t208 -140q90 -92 140 -211t50 -252t-50 -252t-140 -207q-90 -90 -210 -140t-251 -50t-247.5 50t-207.5 140q-90 88 -139 206t-49 251zM623 1634q0 -28 20.5 -47.5t46.5 -19.5q25 0 45.5 19.5t20.5 47.5q0 29 -20.5 48.5t-45.5 19.5 q-27 0 -47 -19.5t-20 -48.5zM961 1634q0 -28 20 -47.5t47 -19.5t46.5 19.5t19.5 47.5q0 29 -19.5 48.5t-46.5 19.5t-47 -19.5t-20 -48.5z" />
<glyph unicode="&#xd7;" horiz-adv-x="1024" d="M250 59l31 -28l28 -31l117 117l113 114l116 -114l117 -117l59 61l-38 39q-39 37 -76 76l-117 117l117 115q37 39 76 75l38 39l-30 31l-29 29l-115 -115l-116 -115l-230 230l-61 -62l229 -229l-112 -115z" />
<glyph unicode="&#xd8;" horiz-adv-x="1720" d="M127 715q0 -154 58.5 -290t164.5 -237l-135 -159l29 -27l28 -27l70 82l68 80q94 -74 207.5 -113.5t240.5 -39.5q150 0 284 56t236 159q100 100 157.5 233t57.5 283q0 158 -63.5 298t-175.5 242l63 76l64 76q-2 2 -58 51l-129 -153q-195 145 -436 145q-150 0 -283 -57.5 t-233 -157.5q-102 -102 -158.5 -236.5t-56.5 -283.5zM213 713q0 133 49 252.5t139 210.5q90 90 208 141t249 51q209 0 381 -127q-262 -309 -418 -493q-256 -307 -418 -496q-92 88 -141 207t-49 254zM463 201q270 317 418 495q274 328 415 494q100 -92 155.5 -214t55.5 -261 q0 -133 -50 -252t-140 -207q-92 -90 -211 -140t-252 -50q-225 0 -391 135z" />
<glyph unicode="&#xd9;" horiz-adv-x="1335" d="M190 463q0 -115 36 -205t102 -152q129 -123 344 -122q215 -1 346 122q68 61 103.5 151.5t35.5 205.5v971h-86v-965q0 -193 -113 -299q-115 -104 -286 -104q-86 0 -159 26.5t-126 77.5q-113 109 -113 299v965h-84v-971zM438 1808l103 -135l102 -137h68l-93 137l-92 135 h-88z" />
<glyph unicode="&#xda;" horiz-adv-x="1335" d="M190 463q0 -115 36 -205t102 -152q129 -123 344 -122q215 -1 346 122q68 61 103.5 151.5t35.5 205.5v971h-86v-965q0 -193 -113 -299q-115 -104 -286 -104q-86 0 -159 26.5t-126 77.5q-113 109 -113 299v965h-84v-971zM614 1536h68l102 137l103 135h-88l-92 -135z" />
<glyph unicode="&#xdb;" horiz-adv-x="1335" d="M190 463q0 -115 36 -205t102 -152q129 -123 344 -122q215 -1 346 122q68 61 103.5 151.5t35.5 205.5v971h-86v-965q0 -193 -113 -299q-115 -104 -286 -104q-86 0 -159 26.5t-126 77.5q-113 109 -113 299v965h-84v-971zM422 1597h67l91 125q57 82 88 123l90 -123 q45 -68 88 -125h67l-122 187l-123 184l-123 -184z" />
<glyph unicode="&#xdc;" horiz-adv-x="1335" d="M190 463q0 -115 36 -205t102 -152q129 -123 344 -122q215 -1 346 122q68 61 103.5 151.5t35.5 205.5v971h-86v-965q0 -193 -113 -299q-115 -104 -286 -104q-86 0 -159 26.5t-126 77.5q-113 109 -113 299v965h-84v-971zM440 1634q0 -28 20.5 -47.5t47.5 -19.5 q25 0 45 19.5t20 47.5q0 29 -20.5 48.5t-44.5 19.5q-27 0 -47.5 -19.5t-20.5 -48.5zM778 1634q0 -28 20.5 -47.5t47.5 -19.5t46 19.5t19 47.5q0 29 -19.5 48.5t-45.5 19.5q-27 0 -47.5 -19.5t-20.5 -48.5z" />
<glyph unicode="&#xdd;" horiz-adv-x="1306" d="M70 1434q74 -127 163 -275l103 -170l264 -446v-543h102v543l529 891h-105q-217 -373 -450 -758l-23 -58h-2l-12 29l-12 29q-74 129 -226 379t-227 379h-104zM602 1536h68l102 137l102 135h-88l-92 -135z" />
<glyph unicode="&#xde;" horiz-adv-x="1026" d="M205 0h86v336h225q209 0 322.5 103.5t113.5 281.5q0 94 -42 168t-113 121q-63 43 -140 64.5t-145 21.5h-221v338h-86v-1434zM291 420v594h213q156 0 260 -88q49 -43 75.5 -96.5t26.5 -108.5q0 -119 -73 -199q-98 -102 -291 -102h-211z" />
<glyph unicode="&#xdf;" horiz-adv-x="1173" d="M45 729h133v-729h84v870q0 178 92 287q90 102 224 107q92 0 155 -68q29 -33 45.5 -75t16.5 -87q0 -90 -62.5 -145t-157.5 -55v-86q141 0 244 -99q49 -47 76 -109.5t27 -129.5q0 -68 -27 -130.5t-76 -111.5t-111.5 -75.5t-134.5 -26.5q-90 0 -163 43l-17 -37l-18 -37 q89 -51 200 -51q86 0 166 33.5t140 91.5q59 57 93 136t34 165q0 135 -78 241q-80 106 -199 146q68 37 109 101.5t41 139.5q0 125 -88 217q-43 43 -98.5 67t-116.5 26q-80 -2 -153 -35t-128 -92q-119 -131 -119 -351v-59h-133v-82z" />
<glyph unicode="&#xe0;" horiz-adv-x="1128" d="M100 385q0 -82 31 -154.5t88 -128.5q55 -55 129 -85.5t156 -30.5q119 0 215 61q88 57 112 131v-43q-2 -14 -2 -43v-92h78v768h-69l-4 -90q-4 -61 -5 -90q-14 37 -44.5 72.5t-71.5 62.5q-96 61 -209 61q-82 0 -156 -30.5t-129 -85.5t-87 -129t-32 -154zM186 385 q0 66 25 124t68 101t100 67.5t125 24.5q133 0 225 -92q43 -43 67.5 -101t24.5 -124q0 -131 -92 -223t-225 -92q-68 0 -125 24.5t-100 67.5q-92 92 -93 223zM274 1253l103 -135l102 -137h68l-92 137l-93 135h-88z" />
<glyph unicode="&#xe1;" horiz-adv-x="1128" d="M100 385q0 -82 31 -154.5t88 -128.5q55 -55 129 -85.5t156 -30.5q119 0 215 61q88 57 112 131v-43q-2 -14 -2 -43v-92h78v768h-69l-4 -90q-4 -61 -5 -90q-14 37 -44.5 72.5t-71.5 62.5q-96 61 -209 61q-82 0 -156 -30.5t-129 -85.5t-87 -129t-32 -154zM186 385 q0 66 25 124t68 101t100 67.5t125 24.5q133 0 225 -92q43 -43 67.5 -101t24.5 -124q0 -131 -92 -223t-225 -92q-68 0 -125 24.5t-100 67.5q-92 92 -93 223zM475 981h68l102 137l103 135h-89l-92 -135z" />
<glyph unicode="&#xe2;" horiz-adv-x="1128" d="M100 385q0 -82 31 -154.5t88 -128.5q55 -55 129 -85.5t156 -30.5q119 0 215 61q88 57 112 131v-43q-2 -14 -2 -43v-92h78v768h-69l-4 -90q-4 -61 -5 -90q-14 37 -44.5 72.5t-71.5 62.5q-96 61 -209 61q-82 0 -156 -30.5t-129 -85.5t-87 -129t-32 -154zM186 385 q0 66 25 124t68 101t100 67.5t125 24.5q133 0 225 -92q43 -43 67.5 -101t24.5 -124q0 -131 -92 -223t-225 -92q-68 0 -125 24.5t-100 67.5q-92 92 -93 223zM289 981h67l90 125q57 82 89 123l90 -123q45 -68 88 -125h67l-123 186l-122 185l-123 -185z" />
<glyph unicode="&#xe3;" horiz-adv-x="1128" d="M100 385q0 -82 31 -154.5t88 -128.5q55 -55 129 -85.5t156 -30.5q119 0 215 61q88 57 112 131v-43q-2 -14 -2 -43v-92h78v768h-69l-4 -90q-4 -61 -5 -90q-14 37 -44.5 72.5t-71.5 62.5q-96 61 -209 61q-82 0 -156 -30.5t-129 -85.5t-87 -129t-32 -154zM186 385 q0 66 25 124t68 101t100 67.5t125 24.5q133 0 225 -92q43 -43 67.5 -101t24.5 -124q0 -131 -92 -223t-225 -92q-68 0 -125 24.5t-100 67.5q-92 92 -93 223zM252 963q8 -2 27 -2q16 0 24 -3q8 57 51 86q31 18 74 19q31 0 55.5 -12.5t53.5 -44.5q36 -37 72 -55.5t77 -18.5 q68 0 115 39q57 43 59 114q-8 2 -24 2q-18 0 -29 3q-8 -59 -49 -84q-31 -20 -74 -21q-31 0 -55.5 12.5t-55.5 44.5q-68 74 -147 74q-66 0 -115 -37q-57 -45 -59 -116z" />
<glyph unicode="&#xe4;" horiz-adv-x="1128" d="M100 385q0 -82 31 -154.5t88 -128.5q55 -55 129 -85.5t156 -30.5q119 0 215 61q88 57 112 131v-43q-2 -14 -2 -43v-92h78v768h-69l-4 -90q-4 -61 -5 -90q-14 37 -44.5 72.5t-71.5 62.5q-96 61 -209 61q-82 0 -156 -30.5t-129 -85.5t-87 -129t-32 -154zM186 385 q0 66 25 124t68 101t100 67.5t125 24.5q133 0 225 -92q43 -43 67.5 -101t24.5 -124q0 -131 -92 -223t-225 -92q-68 0 -125 24.5t-100 67.5q-92 92 -93 223zM303 1040q0 -28 20.5 -47.5t47.5 -19.5q25 0 45 19.5t20 47.5q0 29 -20.5 48.5t-44.5 19.5q-27 0 -47.5 -19.5 t-20.5 -48.5zM641 1040q0 -28 20.5 -47.5t47.5 -19.5t46 19.5t19 47.5q0 29 -19.5 48.5t-45.5 19.5q-27 0 -47.5 -19.5t-20.5 -48.5z" />
<glyph unicode="&#xe5;" horiz-adv-x="1128" d="M100 385q0 -82 31 -154.5t88 -128.5q55 -55 129 -85.5t156 -30.5q119 0 215 61q88 57 112 131v-43q-2 -14 -2 -43v-92h78v768h-69l-4 -90q-4 -61 -5 -90q-14 37 -44.5 72.5t-71.5 62.5q-96 61 -209 61q-82 0 -156 -30.5t-129 -85.5t-87 -129t-32 -154zM186 385 q0 66 25 124t68 101t100 67.5t125 24.5q133 0 225 -92q43 -43 67.5 -101t24.5 -124q0 -131 -92 -223t-225 -92q-68 0 -125 24.5t-100 67.5q-92 92 -93 223zM362 1106q0 -62 44.5 -106t105.5 -44t105.5 44t44.5 106q0 61 -44.5 105t-105.5 44t-105.5 -44t-44.5 -105z M426 1106q0 35 25.5 60.5t60.5 25.5t61.5 -25.5t26.5 -60.5t-26.5 -61.5t-61.5 -26.5t-60.5 26.5t-25.5 61.5z" />
<glyph unicode="&#xe6;" horiz-adv-x="1288" d="M96 213q0 -129 90 -180q78 -49 234 -49q141 0 211 45q84 -43 184 -43q154 0 268 108q-10 10 -26 31q-10 10 -27 31q-86 -86 -215 -86q-78 0 -133 26q31 31 43 70t12 100v64q72 27 215 84t215 84q-37 127 -133 207q-98 82 -219 81q-94 0 -174 -38q-70 39 -221 38 q-72 0 -152 -26q-78 -27 -121 -66l27 -28l25 -29q37 27 98 45q68 20 121 20q143 0 192 -49q23 -23 32 -59.5t9 -91.5v-82h-252q-133 0 -209 -45q-94 -53 -94 -162zM182 211q0 49 37 74q68 47 189 47h81h162v-111q1 -88 -73 -125q-57 -29 -156 -28q-92 0 -158 28 q-82 35 -82 115zM690 678q68 25 125 24q78 0 142.5 -42t101.5 -115l-160 -62l-162 -63v78q0 65 -11 108t-36 72z" />
<glyph unicode="&#xe7;" horiz-adv-x="794" d="M74 385q0 -158 102 -266q49 -53 113.5 -86t138.5 -41v-39q0 -35 19.5 -55.5t60.5 -47.5q37 -25 58.5 -53t21.5 -73q0 -57 -36 -96.5t-91 -39.5q-47 0 -80 26t-43 64l-57 -24q18 -57 57 -86q51 -43 123 -43q86 0 140 52t54 151q0 94 -84 147l-26 16q-14 8 -27 21 q-31 25 -31 74q141 6 242 88q-14 20 -28.5 35.5t-24.5 27.5q-82 -67 -201 -67q-66 0 -123 24.5t-100 67.5q-92 92 -92 223q0 66 24.5 124t67.5 101t100.5 67.5t122.5 24.5q111 0 201 -69l29 33q16 20 26 30q-51 43 -116.5 65.5t-139.5 22.5q-82 0 -154.5 -30.5t-127.5 -85.5 t-87 -129t-32 -154z" />
<glyph unicode="&#xe8;" horiz-adv-x="923" d="M74 385q0 -82 30.5 -154.5t88.5 -128.5q55 -55 127.5 -85.5t154.5 -30.5q152 0 268 106q-2 2 -26 33q-16 20 -27 31q-86 -86 -215 -86q-96 0 -171 48t-111 128l133 53l184 74l317 125q-37 127 -133 207q-100 80 -219 79q-82 0 -154.5 -30.5t-127.5 -85.5t-87 -129 t-32 -154zM164 420q12 121 98 201q43 39 97.5 60t115.5 21q76 0 141.5 -43t102.5 -114q-184 -74 -277 -109l-274 -110q-8 39 -4 94zM203 1253l102 -135l103 -137h67l-92 137l-92 135h-88z" />
<glyph unicode="&#xe9;" horiz-adv-x="923" d="M74 385q0 -82 30.5 -154.5t88.5 -128.5q55 -55 127.5 -85.5t154.5 -30.5q152 0 268 106q-2 2 -26 33q-16 20 -27 31q-86 -86 -215 -86q-96 0 -171 48t-111 128l133 53l184 74l317 125q-37 127 -133 207q-100 80 -219 79q-82 0 -154.5 -30.5t-127.5 -85.5t-87 -129 t-32 -154zM164 420q12 121 98 201q43 39 97.5 60t115.5 21q76 0 141.5 -43t102.5 -114q-184 -74 -277 -109l-274 -110q-8 39 -4 94zM465 981h67l103 137l102 135h-88l-92 -135z" />
<glyph unicode="&#xea;" horiz-adv-x="923" d="M74 385q0 -82 30.5 -154.5t88.5 -128.5q55 -55 127.5 -85.5t154.5 -30.5q152 0 268 106q-2 2 -26 33q-16 20 -27 31q-86 -86 -215 -86q-96 0 -171 48t-111 128l133 53l184 74l317 125q-37 127 -133 207q-100 80 -219 79q-82 0 -154.5 -30.5t-127.5 -85.5t-87 -129 t-32 -154zM164 420q12 121 98 201q43 39 97.5 60t115.5 21q76 0 141.5 -43t102.5 -114q-184 -74 -277 -109l-274 -110q-8 39 -4 94zM229 981h68l90 125q57 82 88 123l90 -123q45 -68 88 -125h68l-123 186l-123 185l-123 -185z" />
<glyph unicode="&#xeb;" horiz-adv-x="923" d="M74 385q0 -82 30.5 -154.5t88.5 -128.5q55 -55 127.5 -85.5t154.5 -30.5q152 0 268 106q-2 2 -26 33q-16 20 -27 31q-86 -86 -215 -86q-96 0 -171 48t-111 128l133 53l184 74l317 125q-37 127 -133 207q-100 80 -219 79q-82 0 -154.5 -30.5t-127.5 -85.5t-87 -129 t-32 -154zM164 420q12 121 98 201q43 39 97.5 60t115.5 21q76 0 141.5 -43t102.5 -114q-184 -74 -277 -109l-274 -110q-8 39 -4 94zM233 1040q0 -28 20.5 -47.5t47.5 -19.5q25 0 45.5 19.5t20.5 47.5q0 29 -20.5 48.5t-45.5 19.5q-27 0 -47.5 -19.5t-20.5 -48.5zM571 1040 q0 -28 20.5 -47.5t47.5 -19.5t46.5 19.5t19.5 47.5q0 29 -19.5 48.5t-46.5 19.5t-47.5 -19.5t-20.5 -48.5z" />
<glyph unicode="&#xec;" horiz-adv-x="356" d="M-49 1253l102 -135l103 -137h67l-92 137l-92 135h-88zM154 0h84v768h-84v-768z" />
<glyph unicode="&#xed;" horiz-adv-x="405" d="M145 0h84v768h-84v-768zM162 981h67l103 137l102 135h-88l-92 -135z" />
<glyph unicode="&#xee;" horiz-adv-x="489" d="M-8 981h67l91 125q57 82 88 123l90 -123q45 -68 88 -125h67l-123 186l-122 185l-123 -185zM195 0h86v768h-86v-768z" />
<glyph unicode="&#xef;" horiz-adv-x="555" d="M53 1040q0 -28 20.5 -47.5t47.5 -19.5q25 0 45 19.5t20 47.5q0 29 -20.5 48.5t-44.5 19.5q-27 0 -47.5 -19.5t-20.5 -48.5zM252 0h86v768h-86v-768zM391 1040q0 -28 20.5 -47.5t47.5 -19.5t46 19.5t19 47.5q0 29 -19.5 48.5t-45.5 19.5q-27 0 -47.5 -19.5t-20.5 -48.5z " />
<glyph unicode="&#xf0;" horiz-adv-x="1009" d="M106 383q2 -166 121 -281q55 -55 129 -84.5t158 -29.5q84 2 156.5 33.5t128.5 87.5q55 57 84.5 129.5t29.5 154.5q0 205 -112 447q-98 213 -269 420l68 73l64 72l-27 25l-31 24q-18 -23 -59 -68l-64 -67q-92 100 -190 178l-57 -57q94 -78 190 -183l-70 -73q2 2 -69 -76 l28 -27l29 -26l66 69q61 68 63 70q115 -137 185.5 -272.5t99.5 -249.5q-45 53 -108.5 83.5t-139.5 30.5q-84 0 -157.5 -30.5t-131.5 -87.5q-55 -55 -85 -129t-30 -156zM193 385q0 66 23.5 124t66.5 101q43 45 101 70t124 25q135 0 225 -91q94 -94 94 -225t-88 -223 q-45 -45 -103 -69.5t-124 -24.5q-68 0 -126 23.5t-101 66.5q-92 92 -92 223z" />
<glyph unicode="&#xf1;" horiz-adv-x="1071" d="M211 0h86v420q0 59 24.5 110.5t69.5 90.5q43 37 100.5 58t118.5 21q82 -4 128 -51t50 -117v-532h86v555q-4 104 -70.5 166.5t-176.5 62.5q-115 0 -205 -58t-131 -157q-2 23 -2 64v63v72h-78v-768zM274 944q8 -2 27 -2q16 0 25 -2q8 57 51 86q31 18 74 18q31 0 55 -12 t53 -45q37 -37 73 -55.5t77 -18.5q68 0 114 39q57 43 60 115q-8 2 -25 2q-18 0 -29 2q-8 -59 -49 -84q-31 -20 -73 -20q-31 0 -55.5 12t-55.5 45q-68 74 -147 74q-66 0 -115 -37q-57 -45 -60 -117z" />
<glyph unicode="&#xf2;" horiz-adv-x="960" d="M74 385q0 -82 30.5 -154.5t88.5 -128.5q55 -55 127.5 -85.5t154.5 -30.5t156 30.5t131 85.5t88 128t31 155q0 80 -32 154.5t-87 130.5q-57 55 -131 85.5t-156 30.5t-154.5 -30.5t-127.5 -85.5t-87 -130t-32 -155zM160 385q0 131 92 223q45 45 102.5 69.5t120.5 24.5 t120.5 -24.5t102.5 -69.5t70 -102t25 -121q0 -63 -25 -120.5t-70 -102.5q-92 -92 -223 -92t-223 92t-92 223zM209 1253l102 -135l103 -137h67l-92 137l-92 135h-88z" />
<glyph unicode="&#xf3;" horiz-adv-x="960" d="M74 385q0 -82 30.5 -154.5t88.5 -128.5q55 -55 127.5 -85.5t154.5 -30.5t156 30.5t131 85.5t88 128t31 155q0 80 -32 154.5t-87 130.5q-57 55 -131 85.5t-156 30.5t-154.5 -30.5t-127.5 -85.5t-87 -130t-32 -155zM160 385q0 131 92 223q45 45 102.5 69.5t120.5 24.5 t120.5 -24.5t102.5 -69.5t70 -102t25 -121q0 -63 -25 -120.5t-70 -102.5q-92 -92 -223 -92t-223 92t-92 223zM473 981h68l102 137l102 135h-88l-92 -135z" />
<glyph unicode="&#xf4;" horiz-adv-x="960" d="M74 385q0 -82 30.5 -154.5t88.5 -128.5q55 -55 127.5 -85.5t154.5 -30.5t156 30.5t131 85.5t88 128t31 155q0 80 -32 154.5t-87 130.5q-57 55 -131 85.5t-156 30.5t-154.5 -30.5t-127.5 -85.5t-87 -130t-32 -155zM160 385q0 131 92 223q45 45 102.5 69.5t120.5 24.5 t120.5 -24.5t102.5 -69.5t70 -102t25 -121q0 -63 -25 -120.5t-70 -102.5q-92 -92 -223 -92t-223 92t-92 223zM229 981h68l90 125q57 82 88 123l90 -123q45 -68 88 -125h68l-123 186l-123 185l-123 -185z" />
<glyph unicode="&#xf5;" horiz-adv-x="960" d="M74 385q0 -82 30.5 -154.5t88.5 -128.5q55 -55 127.5 -85.5t154.5 -30.5t156 30.5t131 85.5t88 128t31 155q0 80 -32 154.5t-87 130.5q-57 55 -131 85.5t-156 30.5t-154.5 -30.5t-127.5 -85.5t-87 -130t-32 -155zM160 385q0 131 92 223q45 45 102.5 69.5t120.5 24.5 t120.5 -24.5t102.5 -69.5t70 -102t25 -121q0 -63 -25 -120.5t-70 -102.5q-92 -92 -223 -92t-223 92t-92 223zM180 963q8 -2 27 -2q16 0 24 -3q8 57 52 86q31 18 73 19q31 0 55.5 -12.5t53.5 -44.5q37 -37 72.5 -55.5t76.5 -18.5q68 0 115 39q57 43 59 114q-8 2 -24 2 q-18 0 -29 3q-8 -59 -49 -84q-31 -20 -74 -21q-31 0 -55.5 12.5t-54.5 44.5q-68 74 -148 74q-66 0 -114 -37q-57 -45 -60 -116z" />
<glyph unicode="&#xf6;" horiz-adv-x="960" d="M74 385q0 -82 30.5 -154.5t88.5 -128.5q55 -55 127.5 -85.5t154.5 -30.5t156 30.5t131 85.5t88 128t31 155q0 80 -32 154.5t-87 130.5q-57 55 -131 85.5t-156 30.5t-154.5 -30.5t-127.5 -85.5t-87 -130t-32 -155zM160 385q0 131 92 223q45 45 102.5 69.5t120.5 24.5 t120.5 -24.5t102.5 -69.5t70 -102t25 -121q0 -63 -25 -120.5t-70 -102.5q-92 -92 -223 -92t-223 92t-92 223zM246 1040q0 -28 20.5 -47.5t46.5 -19.5q25 0 45.5 19.5t20.5 47.5q0 29 -20.5 48.5t-45.5 19.5q-27 0 -47 -19.5t-20 -48.5zM584 1040q0 -28 20.5 -47.5 t46.5 -19.5q27 0 46.5 19.5t19.5 47.5q0 29 -19.5 48.5t-46.5 19.5t-47 -19.5t-20 -48.5z" />
<glyph unicode="&#xf7;" horiz-adv-x="1026" d="M139 426h738v84h-738v-84zM446 213q0 -29 20.5 -48.5t47.5 -19.5t46.5 19.5t19.5 48.5t-19.5 48.5t-46.5 19.5t-47.5 -19.5t-20.5 -48.5zM446 725q0 -29 20.5 -48.5t47.5 -19.5t46.5 19.5t19.5 48.5t-19.5 48.5t-46.5 19.5t-47.5 -19.5t-20.5 -48.5z" />
<glyph unicode="&#xf8;" horiz-adv-x="958" d="M74 385q-1 -165 110 -276q-29 -33 -41 -50l-43 -49l50 -41l81 99q109 -82 244 -82q82 0 156 30.5t131 85.5t88 128t31 155q0 84 -35 161t-96 132q70 82 65 78q-12 10 -22 22l-25 21q-10 -14 -35 -39q-33 -39 -35 -41q-102 66 -223 65q-82 0 -154.5 -30.5t-127.5 -85.5 t-87 -129t-32 -154zM160 385q0 66 24.5 124t67.5 101t100.5 67.5t122.5 24.5q92 0 168 -49q-135 -160 -201 -239l-202 -240q-80 90 -80 211zM287 131l407 483q47 -43 74 -102t27 -127q0 -131 -93 -223q-43 -43 -102 -67.5t-125 -24.5q-108 0 -188 61z" />
<glyph unicode="&#xf9;" horiz-adv-x="1083" d="M211 213q4 -104 70.5 -166.5t177.5 -62.5q113 0 204 58t132 157l-7 -93v-114h86v776h-86v-420q0 -59 -24.5 -110.5t-69.5 -90.5q-43 -37 -100 -58t-119 -21q-82 4 -128 51t-50 117v532h-86v-555zM319 1253l103 -135l102 -137h68l-92 137l-92 135h-89z" />
<glyph unicode="&#xfa;" horiz-adv-x="1083" d="M211 213q4 -104 70.5 -166.5t177.5 -62.5q113 0 204 58t132 157l-7 -93v-114h86v776h-86v-420q0 -59 -24.5 -110.5t-69.5 -90.5q-43 -37 -100 -58t-119 -21q-82 4 -128 51t-50 117v532h-86v-555zM473 981h68l102 137l102 135h-88l-92 -135z" />
<glyph unicode="&#xfb;" horiz-adv-x="1083" d="M211 213q4 -104 70.5 -166.5t177.5 -62.5q113 0 204 58t132 157l-7 -93v-114h86v776h-86v-420q0 -59 -24.5 -110.5t-69.5 -90.5q-43 -37 -100 -58t-119 -21q-82 4 -128 51t-50 117v532h-86v-555zM299 981h68l90 125q57 82 88 123l90 -123q45 -68 88 -125h68l-123 186 l-123 185l-123 -185z" />
<glyph unicode="&#xfc;" horiz-adv-x="1083" d="M211 213q4 -104 70.5 -166.5t177.5 -62.5q113 0 204 58t132 157l-7 -93v-114h86v776h-86v-420q0 -59 -24.5 -110.5t-69.5 -90.5q-43 -37 -100 -58t-119 -21q-82 4 -128 51t-50 117v532h-86v-555zM299 1040q0 -28 20.5 -47.5t47.5 -19.5q25 0 45 19.5t20 47.5 q0 29 -20.5 48.5t-44.5 19.5q-27 0 -47.5 -19.5t-20.5 -48.5zM637 1040q0 -28 20.5 -47.5t47.5 -19.5t46 19.5t19 47.5q0 29 -19.5 48.5t-45.5 19.5q-27 0 -47.5 -19.5t-20.5 -48.5z" />
<glyph unicode="&#xfd;" horiz-adv-x="999" d="M78 768q131 -258 194 -387l193 -385l-127 -254l-127 -254h90q428 854 641 1280h-90q-115 -229 -174 -344q-104 -203 -168 -346q-74 168 -166 346q-119 229 -176 344h-90zM494 981h67l103 137l102 135h-88l-92 -135z" />
<glyph unicode="&#xfe;" horiz-adv-x="1140" d="M137 -512h86v602l-8 84q12 -37 42 -70.5t73 -60.5q94 -59 211 -59q84 0 156.5 30.5t129.5 87.5q55 55 86 128t31 153t-30.5 152.5t-86.5 128.5q-57 55 -130.5 85.5t-155.5 30.5q-115 0 -211 -61q-92 -59 -117 -135l4 53l6 53v846h-86v-2048zM223 383q0 133 92 225 q43 43 101.5 66.5t124.5 23.5t124 -23.5t103 -66.5q90 -94 90 -225q0 -66 -23.5 -124t-66.5 -101t-102.5 -67.5t-124.5 -24.5q-68 0 -125.5 24.5t-100.5 67.5t-67.5 101t-24.5 124z" />
<glyph unicode="&#xff;" horiz-adv-x="999" d="M78 768q131 -258 194 -387l193 -385l-127 -254l-127 -254h90q428 854 641 1280h-90q-115 -229 -174 -344q-104 -203 -168 -346q-74 168 -166 346q-119 229 -176 344h-90zM287 1040q0 -28 20.5 -47.5t46.5 -19.5q25 0 45.5 19.5t20.5 47.5q0 29 -20.5 48.5t-45.5 19.5 q-27 0 -47 -19.5t-20 -48.5zM625 1040q0 -28 20.5 -47.5t46.5 -19.5q27 0 46.5 19.5t19.5 47.5q0 29 -19.5 48.5t-46.5 19.5t-47 -19.5t-20 -48.5z" />
<glyph unicode="&#x2000;" horiz-adv-x="984" />
<glyph unicode="&#x2001;" horiz-adv-x="1968" />
<glyph unicode="&#x2002;" horiz-adv-x="984" />
<glyph unicode="&#x2003;" horiz-adv-x="1968" />
<glyph unicode="&#x2004;" horiz-adv-x="656" />
<glyph unicode="&#x2005;" horiz-adv-x="492" />
<glyph unicode="&#x2006;" horiz-adv-x="328" />
<glyph unicode="&#x2007;" horiz-adv-x="328" />
<glyph unicode="&#x2008;" horiz-adv-x="246" />
<glyph unicode="&#x2009;" horiz-adv-x="393" />
<glyph unicode="&#x200a;" horiz-adv-x="109" />
<glyph unicode="&#x2010;" d="M109 346h376v84h-376v-84z" />
<glyph unicode="&#x2011;" d="M109 346h376v84h-376v-84z" />
<glyph unicode="&#x2012;" d="M109 346h376v84h-376v-84z" />
<glyph unicode="&#x2013;" horiz-adv-x="1042" d="M205 362h616v84h-616v-84z" />
<glyph unicode="&#x2014;" horiz-adv-x="1433" d="M203 362h1028v84h-1028v-84z" />
<glyph unicode="&#x2018;" horiz-adv-x="335" d="M68 1391q0 -63 26.5 -122t73.5 -102l41 41q-74 70 -74 176q0 27 6 58l-32 8l-35 6q-6 -33 -6 -65z" />
<glyph unicode="&#x2019;" horiz-adv-x="335" d="M100 1208l41 -41q47 43 74 101.5t27 122.5q0 33 -6 65l-33 -6l-35 -8q6 -31 6 -58q0 -106 -74 -176z" />
<glyph unicode="&#x201a;" horiz-adv-x="299" d="M41 -59q18 -23 41 -41q47 43 72.5 100t25.5 121q0 35 -6 67l-33 -6l-32 -8q6 -31 6 -57q0 -106 -74 -176z" />
<glyph unicode="&#x201c;" horiz-adv-x="509" d="M57 1389q0 -63 26 -121t73 -101l41 41q-74 70 -74 176q0 27 6 58l-33 8l-33 6q-6 -33 -6 -67zM270 1389q0 -63 26 -121t73 -101l41 41q-74 70 -74 176q0 27 6 58l-33 8l-33 6q-6 -33 -6 -67z" />
<glyph unicode="&#x201d;" horiz-adv-x="507" d="M63 1208l41 -41q48 43 73.5 100.5t25.5 121.5q0 35 -6 67l-33 -6l-33 -8q6 -31 6 -58q0 -106 -74 -176zM276 1208l41 -41q48 43 73.5 100.5t25.5 121.5q0 35 -6 67l-33 -6l-33 -8q6 -31 6 -58q0 -106 -74 -176z" />
<glyph unicode="&#x201e;" horiz-adv-x="567" d="M41 -59q18 -23 41 -41q47 43 72.5 100t25.5 121q0 35 -6 67l-33 -6l-32 -8q6 -31 6 -57q0 -106 -74 -176zM254 -59q18 -23 41 -41q47 43 72.5 100t25.5 121q0 35 -6 67l-33 -6l-32 -8q6 -31 6 -57q0 -106 -74 -176z" />
<glyph unicode="&#x2022;" horiz-adv-x="980" d="M307 614q0 -77 52.5 -129.5t129.5 -52.5q76 0 134 53q53 53 53 129q0 78 -54.5 132.5t-132.5 54.5q-76 0 -129 -53q-53 -57 -53 -134z" />
<glyph unicode="&#x202f;" horiz-adv-x="393" />
<glyph unicode="&#x2039;" horiz-adv-x="802" d="M240 489l350 -331v98l-228 233l115 117l113 115v98l-174 -164z" />
<glyph unicode="&#x203a;" horiz-adv-x="802" d="M240 158v98l227 233l-113 117q-39 37 -75 76l-39 39v98l57 -53q37 -37 119 -111l174 -166z" />
<glyph unicode="&#x205f;" horiz-adv-x="492" />
<glyph unicode="&#x25fc;" horiz-adv-x="768" d="M0 0v768h768v-768h-768z" />
</font>
</defs>
</svg>
